<svg xmlns="http://www.w3.org/2000/svg" xmlns:xlink="http://www.w3.org/1999/xlink" width="793" zoomAndPan="magnify" viewBox="0 0 594.95996 842.24997" height="1122" preserveAspectRatio="xMidYMid meet" version="1.0"><defs><clipPath id="11830e8829"><path d="M 56.839844 789 L 538.660156 789 L 538.660156 841 L 56.839844 841 Z M 56.839844 789 " clip-rule="nonzero"/></clipPath></defs><path fill="#737373" d="M 533.183594 815.1875 C 533.183594 826.476562 524.035156 835.625 512.75 835.625 L 82.464844 835.625 C 71.175781 835.625 62.027344 826.476562 62.027344 815.1875 C 62.027344 803.902344 71.175781 794.75 82.464844 794.75 L 512.75 794.75 C 524.035156 794.730469 533.183594 803.878906 533.183594 815.1875 Z M 516.421875 761.285156 L 516.421875 761.265625 C 516.421875 749.523438 510.632812 738.628906 501.171875 732.632812 L 464.011719 698.066406 C 437.539062 673.441406 421.542969 638.378906 419.695312 600.90625 L 168.671875 599.808594 C 168.671875 639.394531 152.820312 677.070312 125.121094 703.359375 L 94.0625 732.839844 C 84.601562 738.835938 78.8125 749.707031 78.8125 761.472656 C 78.8125 779.855469 92.753906 794.75 109.953125 794.75 L 485.300781 794.585938 C 502.480469 794.566406 516.421875 779.667969 516.421875 761.285156 Z M 429.632812 559.578125 L 432.851562 559.578125 C 432.851562 559.578125 415.378906 533.105469 405.878906 492.167969 L 409.902344 470.382812 C 418.035156 452.625 435.691406 454.679688 435.691406 454.679688 C 435.691406 436.9375 441.5625 419.96875 449.011719 398.472656 C 459.695312 367.601562 472.996094 329.15625 472.996094 273.550781 C 472.996094 173.113281 393.117188 65.410156 363.261719 36.59375 C 358.65625 31.84375 345.855469 19.082031 329.339844 6.113281 L 299.296875 23.855469 C 301.269531 25.265625 303.199219 26.695312 305.105469 28.148438 L 298.863281 24.101562 L 299.296875 23.855469 C 288.175781 15.929688 276.144531 8.875 265.167969 5.742188 C 269.773438 29.582031 262.699219 44.707031 262.699219 44.707031 C 254.710938 55.992188 214.109375 72.402344 184.585938 98.546875 C 165.664062 115.308594 113.898438 157.324219 79.164062 185.351562 C 60.058594 200.769531 57.898438 225.6875 74.164062 243.238281 C 90.183594 260.523438 119.125 265.316406 141.742188 254.257812 C 155.453125 247.554688 170.453125 241.496094 182.136719 240.042969 C 211.039062 236.453125 229.503906 245.6875 252.886719 236.453125 C 276.269531 227.222656 294.089844 204.152344 294.089844 204.152344 C 294.089844 298.925781 124.394531 343.097656 124.394531 467.1875 C 124.394531 532.316406 167.800781 559.578125 167.800781 559.578125 L 161.410156 559.578125 C 150.308594 559.578125 141.285156 568.582031 141.285156 579.703125 C 141.285156 590.824219 150.289062 599.828125 161.410156 599.828125 L 429.65625 599.828125 C 440.753906 599.828125 449.78125 590.824219 449.78125 579.703125 C 449.78125 568.582031 440.734375 559.578125 429.632812 559.578125 Z M 429.632812 559.578125 " fill-opacity="1" fill-rule="nonzero"/><path fill="#010101" d="M 433.84375 125.703125 C 411.003906 84.1875 383.738281 49.167969 366.957031 32.960938 C 362.164062 28.023438 349.214844 15.121094 332.515625 2.007812 C 330.832031 0.679688 328.511719 0.535156 326.683594 1.613281 L 299.527344 17.652344 C 288.777344 10.242188 277.261719 3.769531 266.578125 0.71875 C 264.835938 0.222656 262.96875 0.660156 261.640625 1.882812 C 260.3125 3.105469 259.710938 4.910156 260.042969 6.695312 C 263.839844 26.324219 259.109375 39.621094 258.15625 42.070312 C 254.710938 46.40625 243.757812 52.878906 232.179688 59.707031 C 216.640625 68.875 197.300781 80.289062 181.121094 94.625 C 161.78125 111.761719 106.882812 156.265625 75.886719 181.285156 C 65.347656 189.792969 59.0625 201.265625 58.167969 213.589844 C 57.296875 225.5625 61.632812 237.324219 70.347656 246.726562 C 87.859375 265.605469 119.519531 270.855469 144 258.882812 C 160.226562 250.957031 173.277344 246.351562 182.757812 245.167969 C 194.375 243.714844 204.210938 244.441406 213.714844 245.128906 C 227.28125 246.125 240.082031 247.035156 254.753906 241.246094 C 268.03125 236 279.484375 226.703125 287.304688 219.152344 C 279.941406 254.027344 247.945312 282.824219 214.292969 313.074219 C 169.707031 353.160156 119.1875 398.617188 119.1875 467.148438 C 119.1875 534.371094 163.152344 562.753906 165.019531 563.914062 C 165.847656 564.433594 166.804688 564.703125 167.777344 564.703125 L 432.851562 564.703125 C 434.757812 564.703125 436.523438 563.644531 437.414062 561.964844 C 438.328125 560.28125 438.222656 558.25 437.164062 556.652344 C 436.9375 556.300781 420.296875 530.71875 411.066406 491.484375 C 411.167969 479.117188 414.136719 470.175781 419.945312 464.925781 C 426.5625 458.953125 435.027344 459.71875 435.070312 459.738281 C 436.542969 459.90625 438.015625 459.449219 439.117188 458.453125 C 440.214844 457.480469 440.859375 456.066406 440.859375 454.574219 C 440.859375 437.707031 446.605469 421.109375 453.886719 400.070312 C 464.699219 368.824219 478.164062 329.941406 478.164062 273.46875 C 478.164062 217.925781 454.074219 162.449219 433.84375 125.703125 Z M 169.355469 554.390625 C 162.507812 549.558594 129.539062 523.289062 129.539062 467.1875 C 129.539062 403.285156 176.140625 361.375 221.222656 320.835938 C 261.351562 284.753906 299.234375 250.667969 299.234375 204.152344 C 299.234375 201.929688 297.824219 199.960938 295.730469 199.253906 C 293.632812 198.550781 291.308594 199.234375 289.941406 200.976562 C 289.773438 201.203125 272.636719 223.050781 250.914062 231.640625 C 238.445312 236.558594 227.304688 235.769531 214.441406 234.816406 C 204.894531 234.132812 194.066406 233.34375 181.449219 234.898438 C 170.828125 236.226562 156.679688 241.164062 139.417969 249.589844 C 118.875 259.609375 92.445312 255.355469 77.921875 239.691406 C 71.175781 232.410156 67.835938 223.425781 68.480469 214.359375 C 69.164062 204.917969 74.101562 196.039062 82.359375 189.378906 C 120.308594 158.753906 169.4375 118.816406 187.964844 102.40625 C 203.402344 88.730469 222.261719 77.589844 237.40625 68.648438 C 251.992188 60.039062 262.511719 53.8125 266.867188 47.671875 C 267.054688 47.421875 267.199219 47.152344 267.347656 46.863281 C 267.617188 46.261719 273.382812 33.648438 271.476562 13.5 C 279.007812 16.738281 296.371094 28.832031 297.742188 29.125 C 317.96875 43.835938 334.941406 61.324219 335.210938 61.59375 C 335.253906 61.65625 335.316406 61.699219 335.378906 61.738281 C 359.839844 85.039062 430.816406 180.375 430.816406 265.230469 C 430.816406 312.929688 419.53125 345.503906 409.589844 374.238281 C 401.582031 397.371094 394.675781 417.351562 394.675781 440.734375 C 394.675781 495.011719 414.40625 537.335938 423.761719 554.347656 L 169.355469 554.347656 Z M 444.074219 396.769531 C 437.164062 416.710938 431.585938 432.851562 430.628906 449.59375 C 425.960938 450.09375 419.15625 451.816406 413.160156 457.167969 C 410.503906 459.53125 408.324219 462.394531 406.519531 465.632812 C 405.585938 457.6875 405.046875 449.386719 405.046875 440.777344 C 405.046875 419.136719 411.707031 399.925781 419.40625 377.683594 C 429.613281 348.160156 441.191406 314.714844 441.191406 265.273438 C 441.191406 177.15625 367.972656 78.566406 342.617188 54.351562 C 341.082031 52.777344 326.808594 38.171875 308.675781 24.332031 L 328.882812 12.402344 C 343.738281 24.332031 355.148438 35.722656 359.632812 40.328125 C 388.511719 68.191406 467.789062 175.25 467.789062 273.570312 C 467.789062 328.285156 454.65625 366.25 444.074219 396.769531 Z M 444.074219 396.769531 " fill-opacity="1" fill-rule="nonzero"/><path fill="#010101" d="M 109.933594 799.917969 C 100.160156 799.917969 91.011719 795.871094 84.144531 788.527344 C 77.359375 781.285156 73.625 771.660156 73.625 761.453125 C 73.625 748.171875 80.203125 735.683594 90.847656 728.734375 L 121.554688 699.582031 C 148.191406 674.3125 163.484375 637.941406 163.484375 599.808594 C 163.484375 598.417969 164.023438 597.109375 165.019531 596.136719 C 166.015625 595.160156 167.28125 594.558594 168.691406 594.621094 L 419.695312 595.71875 C 422.457031 595.742188 424.714844 597.898438 424.863281 600.65625 C 426.625 636.570312 442.1875 670.703125 467.539062 694.269531 L 504.367188 728.527344 C 515.011719 735.496094 521.609375 747.988281 521.609375 761.265625 C 521.609375 782.488281 505.320312 799.75 485.300781 799.75 Z M 173.753906 605.015625 C 172.425781 644.082031 156.160156 681.035156 128.691406 707.113281 L 97.632812 736.597656 C 97.382812 736.824219 97.113281 737.03125 96.84375 737.21875 C 88.917969 742.238281 84 751.535156 84 761.472656 C 84 769.046875 86.738281 776.140625 91.71875 781.472656 C 96.613281 786.703125 103.085938 789.566406 109.933594 789.566406 C 109.933594 789.566406 109.933594 789.566406 109.953125 789.566406 L 485.300781 789.398438 C 499.59375 789.398438 511.234375 776.785156 511.234375 761.304688 C 511.234375 751.347656 506.316406 742.054688 498.390625 737.03125 C 498.121094 736.867188 497.871094 736.660156 497.625 736.449219 L 460.464844 701.886719 C 434.324219 677.570312 417.847656 642.878906 414.820312 606.09375 Z M 94.0625 732.839844 Z M 94.0625 732.839844 " fill-opacity="1" fill-rule="nonzero"/><g clip-path="url(#11830e8829)"><path fill="#010101" d="M 512.75 840.8125 L 82.464844 840.8125 C 68.335938 840.8125 56.839844 829.316406 56.839844 815.1875 C 56.839844 801.058594 68.335938 789.566406 82.464844 789.566406 L 512.75 789.566406 C 526.878906 789.566406 538.371094 801.058594 538.371094 815.1875 C 538.371094 829.316406 526.878906 840.8125 512.75 840.8125 Z M 82.464844 799.917969 C 74.0625 799.917969 67.214844 806.765625 67.214844 815.167969 C 67.214844 823.570312 74.0625 830.4375 82.464844 830.4375 L 512.75 830.4375 C 521.152344 830.4375 528 823.589844 528 815.1875 C 528 806.785156 521.152344 799.9375 512.75 799.9375 L 82.464844 799.9375 Z M 82.464844 799.917969 " fill-opacity="1" fill-rule="nonzero"/></g><path fill="#010101" d="M 429.632812 604.996094 L 161.386719 604.996094 C 147.445312 604.996094 136.078125 593.644531 136.078125 579.683594 C 136.078125 565.71875 147.425781 554.371094 161.386719 554.371094 L 429.632812 554.371094 C 443.578125 554.371094 454.945312 565.71875 454.945312 579.683594 C 454.945312 593.644531 443.578125 604.996094 429.632812 604.996094 Z M 161.386719 564.765625 C 153.152344 564.765625 146.449219 571.464844 146.449219 579.703125 C 146.449219 587.941406 153.152344 594.640625 161.386719 594.640625 L 429.632812 594.640625 C 437.871094 594.640625 444.570312 587.941406 444.570312 579.703125 C 444.570312 571.464844 437.871094 564.765625 429.632812 564.765625 Z M 161.386719 564.765625 " fill-opacity="1" fill-rule="nonzero"/><path fill="#010101" d="M 200.808594 136.285156 C 201.617188 140.082031 209.441406 138.628906 216.265625 136.804688 C 223.089844 134.976562 226.929688 131.742188 226.804688 126.71875 C 226.703125 122.839844 223.527344 118.339844 216.722656 120.164062 C 209.875 121.96875 199.523438 130.164062 200.808594 136.285156 Z M 200.808594 136.285156 " fill-opacity="1" fill-rule="nonzero"/><path fill="#010101" d="M 88.316406 215.996094 C 85.453125 215.996094 83.128906 213.671875 83.128906 210.8125 C 83.128906 201.226562 94.539062 197.136719 95.847656 196.722656 C 98.566406 195.808594 101.511719 197.285156 102.402344 200 C 103.316406 202.71875 101.84375 205.644531 99.144531 206.558594 C 96.59375 207.429688 93.503906 209.523438 93.503906 210.8125 C 93.503906 213.675781 91.179688 215.996094 88.316406 215.996094 Z M 88.316406 215.996094 " fill-opacity="1" fill-rule="nonzero"/></svg>