<svg xmlns="http://www.w3.org/2000/svg" xmlns:xlink="http://www.w3.org/1999/xlink" width="793" zoomAndPan="magnify" viewBox="0 0 594.95996 842.24997" height="1122" preserveAspectRatio="xMidYMid meet" version="1.0"><defs><clipPath id="a4cc7d585d"><path d="M 59.71875 1 L 526.554688 1 L 526.554688 841 L 59.71875 841 Z M 59.71875 1 " clip-rule="nonzero"/></clipPath></defs><path fill="#737373" d="M 193.609375 273.226562 C 160.960938 244.949219 140.460938 202.996094 141.0625 156.269531 C 142.097656 73.269531 210.773438 5.816406 293.792969 6.191406 C 377.4375 6.5625 445.136719 74.492188 445.136719 158.238281 C 445.136719 202.890625 425.652344 245.425781 394.992188 273.246094 Z M 444.414062 298.847656 C 444.414062 284.648438 432.90625 273.140625 418.707031 273.140625 L 167.449219 273.140625 C 153.25 273.140625 141.746094 284.648438 141.746094 298.847656 C 141.746094 313.046875 153.25 324.550781 167.449219 324.550781 L 418.707031 324.550781 C 432.90625 324.550781 444.414062 313.046875 444.414062 298.847656 Z M 377.664062 601.039062 L 360.894531 324.550781 L 225.261719 324.550781 L 208.492188 601.039062 Z M 409.648438 601.039062 L 176.507812 601.039062 L 176.507812 660.945312 L 83.621094 729.082031 C 73.898438 734.84375 67.929688 745.332031 67.929688 756.632812 C 67.929688 774.335938 82.273438 788.679688 99.976562 788.65625 L 486.203125 788.492188 C 503.882812 788.492188 518.230469 774.148438 518.230469 756.464844 L 518.230469 756.445312 C 518.230469 745.125 512.257812 734.660156 502.539062 728.894531 L 412.675781 658.519531 Z M 521.253906 812.019531 C 521.253906 799.125 510.808594 788.679688 497.914062 788.679688 L 88.242188 788.679688 C 75.347656 788.679688 64.902344 799.125 64.902344 812.019531 C 64.902344 824.914062 75.347656 835.359375 88.242188 835.359375 L 497.933594 835.359375 C 510.808594 835.359375 521.253906 824.914062 521.253906 812.019531 Z M 521.253906 812.019531 " fill-opacity="1" fill-rule="nonzero"/><g clip-path="url(#a4cc7d585d)"><path fill="#010101" d="M 396.984375 278.40625 L 191.679688 278.40625 L 190.230469 277.144531 C 155.09375 246.734375 135.296875 202.664062 135.878906 156.207031 C 136.957031 70.246094 207.726562 0.554688 293.816406 1.007812 C 380.109375 1.402344 450.300781 71.921875 450.300781 158.238281 C 450.300781 203.179688 430.917969 247.625 398.476562 277.082031 Z M 195.578125 268.042969 L 392.984375 268.042969 C 422.441406 240.515625 439.957031 199.617188 439.957031 158.21875 C 439.957031 77.601562 374.390625 11.726562 293.773438 11.351562 C 213.425781 11 147.238281 76.046875 146.242188 156.332031 C 145.703125 199.097656 163.65625 239.683594 195.578125 268.042969 Z M 186.394531 133.011719 C 194.375 99.160156 218.296875 70.824219 250.429688 57.246094 C 253.0625 56.128906 254.304688 53.101562 253.183594 50.449219 C 252.066406 47.816406 249.039062 46.570312 246.386719 47.691406 C 211.230469 62.554688 185.027344 93.566406 176.300781 130.628906 C 175.636719 133.40625 177.378906 136.203125 180.15625 136.867188 C 180.550781 136.972656 180.964844 137.011719 181.335938 137.011719 C 183.699219 137.011719 185.835938 135.398438 186.394531 133.011719 Z M 202.273438 228.65625 C 204.617188 227 205.175781 223.765625 203.519531 221.445312 C 196.800781 211.949219 191.679688 201.523438 188.28125 190.453125 C 187.433594 187.71875 184.550781 186.183594 181.816406 187.011719 C 179.078125 187.863281 177.542969 190.742188 178.375 193.480469 C 182.105469 205.605469 187.703125 217.027344 195.058594 227.414062 C 196.078125 228.84375 197.671875 229.609375 199.289062 229.609375 C 200.324219 229.609375 201.382812 229.300781 202.273438 228.65625 Z M 418.707031 329.734375 L 167.449219 329.734375 C 150.429688 329.734375 136.5625 315.886719 136.5625 298.847656 C 136.5625 281.828125 150.410156 267.960938 167.449219 267.960938 L 418.707031 267.960938 C 435.726562 267.960938 449.59375 281.808594 449.59375 298.847656 C 449.59375 315.886719 435.746094 329.734375 418.707031 329.734375 Z M 167.449219 278.34375 C 156.132812 278.34375 146.925781 287.550781 146.925781 298.867188 C 146.925781 310.183594 156.132812 319.390625 167.449219 319.390625 L 418.707031 319.390625 C 430.027344 319.390625 439.230469 310.183594 439.230469 298.867188 C 439.230469 287.550781 430.027344 278.34375 418.707031 278.34375 Z M 377.683594 606.21875 L 208.492188 606.21875 C 207.0625 606.21875 205.695312 605.640625 204.71875 604.582031 C 203.746094 603.546875 203.226562 602.136719 203.3125 600.707031 L 220.082031 324.21875 C 220.246094 321.484375 222.507812 319.347656 225.261719 319.347656 L 360.914062 319.347656 C 363.652344 319.347656 365.933594 321.484375 366.097656 324.21875 L 382.867188 600.707031 C 382.949219 602.136719 382.453125 603.523438 381.480469 604.582031 C 380.503906 605.640625 379.09375 606.21875 377.683594 606.21875 Z M 213.984375 595.855469 L 372.171875 595.855469 L 356.023438 329.734375 L 230.132812 329.734375 Z M 99.976562 793.859375 C 90.046875 793.859375 80.695312 789.984375 73.671875 782.957031 C 66.644531 775.929688 62.765625 766.582031 62.765625 756.632812 C 62.765625 743.632812 69.667969 731.445312 80.78125 724.75 L 171.347656 658.292969 L 171.347656 601.015625 C 171.347656 598.15625 173.667969 595.835938 176.527344 595.835938 L 409.648438 595.835938 C 412.40625 595.835938 414.6875 597.992188 414.832031 600.746094 L 417.734375 655.886719 L 505.480469 724.605469 C 516.550781 731.320312 523.410156 743.46875 523.410156 756.445312 C 523.410156 776.988281 506.726562 793.675781 486.203125 793.695312 Z M 181.691406 606.21875 L 181.691406 660.945312 C 181.691406 662.601562 180.902344 664.136719 179.574219 665.132812 L 86.6875 733.289062 C 86.542969 733.394531 86.417969 733.476562 86.273438 733.558594 C 78.148438 738.367188 73.109375 747.21875 73.109375 756.652344 C 73.109375 763.824219 75.910156 770.5625 80.988281 775.640625 C 86.066406 780.71875 92.804688 783.496094 99.976562 783.496094 C 99.976562 783.496094 99.976562 783.496094 99.996094 783.496094 L 486.222656 783.332031 C 501.023438 783.332031 513.066406 771.285156 513.066406 756.484375 C 513.066406 747.011719 508.03125 738.183594 499.90625 733.351562 C 499.71875 733.25 499.53125 733.105469 499.34375 732.980469 L 409.484375 662.601562 C 408.300781 661.671875 407.578125 660.300781 407.492188 658.789062 L 404.714844 606.199219 L 181.691406 606.199219 Z M 497.914062 840.542969 L 88.242188 840.542969 C 72.507812 840.542969 59.71875 827.753906 59.71875 812.019531 C 59.71875 796.285156 72.507812 783.496094 88.242188 783.496094 L 497.933594 783.496094 C 513.667969 783.496094 526.457031 796.285156 526.457031 812.019531 C 526.457031 827.753906 513.648438 840.542969 497.914062 840.542969 Z M 88.242188 793.859375 C 78.230469 793.859375 70.082031 802.007812 70.082031 812.019531 C 70.082031 822.03125 78.230469 830.179688 88.242188 830.179688 L 497.933594 830.179688 C 507.949219 830.179688 516.09375 822.03125 516.09375 812.019531 C 516.09375 802.007812 507.949219 793.859375 497.933594 793.859375 Z M 88.242188 793.859375 " fill-opacity="1" fill-rule="nonzero"/></g></svg>