<svg xmlns="http://www.w3.org/2000/svg" xmlns:xlink="http://www.w3.org/1999/xlink" width="793" zoomAndPan="magnify" viewBox="0 0 594.95996 842.24997" height="1122" preserveAspectRatio="xMidYMid meet" version="1.0"><defs><clipPath id="b5d6ae103b"><path d="M 88.910156 1 L 506.289062 1 L 506.289062 841 L 88.910156 841 Z M 88.910156 1 " clip-rule="nonzero"/></clipPath></defs><path fill="#737373" d="M 330.03125 55.875 L 265.160156 55.875 L 265.160156 38.6875 C 265.160156 20.777344 279.6875 6.25 297.59375 6.25 C 315.503906 6.25 330.03125 20.777344 330.03125 38.6875 Z M 362.671875 129.949219 C 362.984375 128.398438 363.167969 81.851562 363.167969 80.199219 C 363.167969 66.996094 352.480469 56.308594 339.273438 56.308594 L 255.894531 56.308594 C 242.691406 56.308594 232.003906 66.996094 232.003906 80.199219 C 232.003906 82.078125 232.230469 128.832031 232.621094 130.585938 M 424.613281 86.164062 C 407.078125 86.164062 392.859375 100.378906 392.859375 117.917969 C 392.859375 100.378906 378.644531 86.164062 361.105469 86.164062 C 343.566406 86.164062 329.351562 100.378906 329.351562 117.917969 C 329.351562 100.378906 315.132812 86.164062 297.59375 86.164062 C 280.058594 86.164062 265.839844 100.378906 265.839844 117.917969 C 265.839844 100.378906 251.625 86.164062 234.085938 86.164062 C 216.546875 86.164062 202.332031 100.378906 202.332031 117.917969 C 202.332031 100.378906 188.113281 86.164062 170.578125 86.164062 L 216.960938 276.671875 L 376.269531 276.671875 Z M 402.992188 631.195312 L 190.324219 631.195312 C 190.324219 665.382812 172.496094 697.945312 148.582031 720.640625 L 121.738281 746.101562 C 113.566406 751.28125 108.550781 760.667969 108.550781 770.839844 C 108.550781 786.730469 120.601562 799.605469 135.457031 799.582031 L 459.734375 799.4375 C 474.589844 799.4375 486.617188 786.5625 486.617188 770.695312 L 486.617188 770.675781 C 486.617188 760.523438 481.605469 751.117188 473.433594 745.9375 L 441.328125 716.082031 C 418.445312 694.808594 406.703125 664.515625 405.09375 632.144531 Z M 501.101562 817.246094 C 501.101562 807.484375 493.199219 799.582031 483.441406 799.582031 L 111.730469 799.582031 C 101.96875 799.582031 94.066406 807.484375 94.066406 817.246094 C 94.066406 827.003906 101.96875 834.90625 111.730469 834.90625 L 483.441406 834.90625 C 493.199219 834.90625 501.101562 827.003906 501.101562 817.246094 Z M 385.082031 631.195312 L 367.730469 360.671875 L 227.441406 360.671875 L 210.089844 631.195312 Z M 424.925781 341.417969 C 424.925781 329.472656 415.246094 319.796875 403.300781 319.796875 L 191.871094 319.796875 C 179.921875 319.796875 170.246094 329.472656 170.246094 341.417969 C 170.246094 353.367188 179.921875 363.042969 191.871094 363.042969 L 403.300781 363.042969 C 415.246094 363.023438 424.925781 353.34375 424.925781 341.417969 Z M 410.75 298.171875 C 410.75 286.226562 401.070312 276.546875 389.125 276.546875 L 206.046875 276.546875 C 194.097656 276.546875 184.421875 286.226562 184.421875 298.171875 C 184.421875 310.117188 194.097656 319.796875 206.046875 319.796875 L 389.105469 319.796875 C 401.070312 319.796875 410.75 310.097656 410.75 298.171875 Z M 410.75 298.171875 " fill-opacity="1" fill-rule="nonzero"/><g clip-path="url(#b5d6ae103b)"><path fill="#010101" d="M 241.660156 220.074219 C 242.402344 222.820312 240.769531 225.664062 238.007812 226.386719 C 237.550781 226.511719 237.097656 226.574219 236.664062 226.574219 C 234.394531 226.574219 232.3125 225.046875 231.691406 222.757812 L 216.960938 167.890625 C 216.21875 165.148438 217.847656 162.300781 220.613281 161.578125 C 223.378906 160.835938 226.203125 162.464844 226.925781 165.230469 Z M 506.261719 817.246094 C 506.261719 829.832031 496.027344 840.066406 483.441406 840.066406 L 111.730469 840.066406 C 99.144531 840.066406 88.910156 829.832031 88.910156 817.246094 C 88.910156 804.660156 99.144531 794.425781 111.730469 794.425781 L 112.453125 794.425781 C 106.632812 788.070312 103.414062 779.714844 103.414062 770.839844 C 103.414062 759.164062 109.191406 748.1875 118.558594 742.035156 L 145.054688 716.90625 C 170.183594 693.054688 185.183594 661.03125 185.183594 631.195312 C 185.183594 628.347656 187.496094 626.035156 190.34375 626.035156 L 205.28125 626.035156 L 221.808594 368.203125 L 191.871094 368.203125 C 177.097656 368.203125 165.089844 356.191406 165.089844 341.417969 C 165.089844 328.8125 173.835938 318.246094 185.578125 315.421875 C 181.636719 310.757812 179.261719 304.753906 179.261719 298.171875 C 179.261719 283.398438 191.273438 271.390625 206.046875 271.390625 L 210.316406 271.390625 L 165.542969 87.382812 C 165.171875 85.832031 165.519531 84.222656 166.492188 82.964844 C 167.460938 81.726562 168.96875 80.984375 170.554688 80.984375 C 184.050781 80.984375 195.875 88.269531 202.3125 99.101562 C 207.59375 90.226562 216.484375 83.75 226.925781 81.6875 C 226.90625 81.191406 226.84375 80.695312 226.84375 80.199219 C 226.84375 64.1875 239.882812 51.148438 255.894531 51.148438 L 259.980469 51.148438 L 259.980469 38.6875 C 260 17.949219 276.859375 1.09375 297.59375 1.09375 C 318.332031 1.09375 335.191406 17.949219 335.191406 38.6875 L 335.191406 51.148438 L 339.273438 51.148438 C 355.285156 51.148438 368.328125 64.1875 368.328125 80.199219 C 368.328125 80.695312 368.285156 81.191406 368.246094 81.6875 C 378.707031 83.75 387.578125 90.226562 392.859375 99.101562 C 399.296875 88.269531 411.121094 80.984375 424.613281 80.984375 C 426.203125 80.984375 427.710938 81.726562 428.679688 82.984375 C 429.648438 84.246094 430 85.875 429.609375 87.421875 L 382.894531 271.390625 L 389.125 271.390625 C 403.898438 271.390625 415.90625 283.398438 415.90625 298.171875 C 415.90625 304.734375 413.515625 310.757812 409.59375 315.421875 C 421.335938 318.269531 430.082031 328.832031 430.082031 341.417969 C 430.082031 356.191406 418.074219 368.203125 403.300781 368.203125 L 373.382812 368.203125 L 389.910156 626.035156 L 402.992188 626.035156 C 403.714844 626.035156 404.433594 626.199219 405.117188 626.488281 L 407.222656 627.4375 C 408.996094 628.242188 410.152344 629.957031 410.253906 631.894531 C 411.863281 664.496094 424.140625 693.054688 444.835938 712.304688 L 476.609375 741.851562 C 485.976562 748 491.777344 758.996094 491.777344 770.675781 C 491.777344 779.921875 488.25 788.316406 482.574219 794.445312 L 483.460938 794.445312 C 496.027344 794.425781 506.261719 804.660156 506.261719 817.246094 Z M 270.316406 50.714844 L 324.871094 50.714844 L 324.871094 38.6875 C 324.871094 23.644531 312.636719 11.410156 297.59375 11.410156 C 282.554688 11.410156 270.316406 23.644531 270.316406 38.6875 Z M 237.160156 80.199219 C 237.160156 80.511719 237.203125 80.820312 237.222656 81.148438 C 249.394531 82.179688 259.898438 89.132812 265.839844 99.121094 C 272.277344 88.289062 284.101562 81.003906 297.59375 81.003906 C 311.089844 81.003906 322.914062 88.289062 329.351562 99.121094 C 335.292969 89.132812 345.796875 82.179688 357.96875 81.148438 C 357.988281 80.839844 358.011719 80.53125 358.011719 80.199219 C 358.011719 69.863281 349.613281 61.464844 339.273438 61.464844 L 255.894531 61.464844 C 245.578125 61.464844 237.160156 69.863281 237.160156 80.199219 Z M 220.941406 271.390625 L 372.246094 271.390625 L 417.765625 92.210938 C 406.417969 95.242188 398.019531 105.621094 398.019531 117.917969 C 398.019531 120.765625 395.707031 123.078125 392.859375 123.078125 C 390.011719 123.078125 387.703125 120.765625 387.703125 117.917969 C 387.703125 103.246094 375.777344 91.320312 361.105469 91.320312 C 346.433594 91.320312 334.507812 103.246094 334.507812 117.917969 C 334.507812 120.765625 332.199219 123.078125 329.351562 123.078125 C 326.503906 123.078125 324.191406 120.765625 324.191406 117.917969 C 324.191406 103.246094 312.265625 91.320312 297.59375 91.320312 C 282.925781 91.320312 271 103.246094 271 117.917969 C 271 120.765625 268.6875 123.078125 265.839844 123.078125 C 262.992188 123.078125 260.683594 120.765625 260.683594 117.917969 C 260.683594 103.246094 248.757812 91.320312 234.085938 91.320312 C 219.414062 91.320312 207.488281 103.246094 207.488281 117.917969 C 207.488281 120.765625 205.179688 123.078125 202.332031 123.078125 C 199.484375 123.078125 197.171875 120.765625 197.171875 117.917969 C 197.171875 105.601562 188.753906 95.199219 177.34375 92.1875 Z M 189.578125 298.171875 C 189.578125 307.25 196.964844 314.636719 206.046875 314.636719 L 389.125 314.636719 C 398.203125 314.636719 405.589844 307.25 405.589844 298.171875 C 405.589844 289.09375 398.203125 281.707031 389.125 281.707031 L 377.34375 281.707031 C 376.992188 281.789062 376.621094 281.828125 376.25 281.828125 L 216.941406 281.828125 C 216.570312 281.828125 216.195312 281.769531 215.847656 281.707031 L 206.066406 281.707031 C 196.964844 281.707031 189.578125 289.09375 189.578125 298.171875 Z M 191.871094 357.863281 L 403.300781 357.863281 C 412.378906 357.863281 419.765625 350.476562 419.765625 341.398438 C 419.765625 332.320312 412.378906 324.933594 403.300781 324.933594 L 191.871094 324.933594 C 182.792969 324.933594 175.40625 332.320312 175.40625 341.398438 C 175.40625 350.496094 182.792969 357.863281 191.871094 357.863281 Z M 215.597656 626.035156 L 379.570312 626.035156 L 363.042969 368.203125 L 232.125 368.203125 Z M 135.457031 794.425781 L 459.734375 794.28125 C 471.722656 794.28125 481.460938 783.695312 481.460938 770.695312 C 481.460938 762.320312 477.332031 754.519531 470.667969 750.289062 C 470.398438 750.125 470.152344 749.917969 469.925781 749.710938 L 437.820312 719.855469 C 415.988281 699.554688 402.722656 670.027344 400.207031 636.351562 L 195.355469 636.351562 C 193.808594 667.796875 178.253906 699.613281 152.128906 724.394531 L 125.285156 749.855469 C 125.039062 750.082031 124.769531 750.289062 124.503906 750.476562 C 117.859375 754.683594 113.710938 762.503906 113.710938 770.839844 C 113.710938 777.21875 116.023438 783.179688 120.210938 787.65625 C 124.296875 792.011719 129.722656 794.425781 135.457031 794.425781 Z M 495.945312 817.246094 C 495.945312 810.355469 490.332031 804.742188 483.441406 804.742188 L 135.457031 804.742188 C 135.457031 804.742188 135.457031 804.742188 135.4375 804.742188 L 111.710938 804.742188 C 104.816406 804.742188 99.207031 810.355469 99.207031 817.246094 C 99.207031 824.136719 104.816406 829.75 111.710938 829.75 L 483.421875 829.75 C 490.332031 829.75 495.945312 824.136719 495.945312 817.246094 Z M 495.945312 817.246094 " fill-opacity="1" fill-rule="nonzero"/></g></svg>