<svg xmlns="http://www.w3.org/2000/svg" xmlns:xlink="http://www.w3.org/1999/xlink" width="793" zoomAndPan="magnify" viewBox="0 0 594.95996 842.24997" height="1122" preserveAspectRatio="xMidYMid meet" version="1.0"><defs><clipPath id="8d55b1b0a6"><path d="M 87.859375 0 L 507.484375 0 L 507.484375 841 L 87.859375 841 Z M 87.859375 0 " clip-rule="nonzero"/></clipPath></defs><path fill="#ffffff" d="M 209.679688 630.84375 L 227.125 417.636719 L 368.15625 417.636719 L 385.601562 630.84375 Z M 403.605469 630.84375 L 189.808594 630.84375 C 189.808594 665.21875 171.886719 697.957031 147.847656 720.777344 L 120.859375 746.378906 C 112.644531 751.585938 107.605469 761.023438 107.605469 771.253906 C 107.605469 787.226562 119.71875 800.171875 134.652344 800.152344 L 460.648438 800.007812 C 475.582031 800.007812 487.675781 787.0625 487.675781 771.109375 L 487.675781 771.085938 C 487.675781 760.878906 482.632812 751.417969 474.421875 746.210938 L 442.144531 716.191406 C 419.140625 694.804688 407.339844 664.347656 405.71875 631.796875 Z M 502.238281 817.910156 C 502.238281 808.097656 494.292969 800.152344 484.480469 800.152344 L 110.800781 800.152344 C 100.988281 800.152344 93.042969 808.097656 93.042969 817.910156 C 93.042969 827.722656 100.988281 835.667969 110.800781 835.667969 L 484.480469 835.667969 C 494.292969 835.667969 502.238281 827.722656 502.238281 817.910156 Z M 425.652344 396 C 425.652344 383.988281 415.925781 374.257812 403.914062 374.257812 L 191.363281 374.257812 C 179.355469 374.257812 169.625 383.988281 169.625 396 C 169.625 408.011719 179.355469 417.742188 191.363281 417.742188 L 403.914062 417.742188 C 415.925781 417.742188 425.652344 408.011719 425.652344 396 Z M 411.402344 352.515625 C 411.402344 340.503906 401.675781 330.773438 389.664062 330.773438 L 205.613281 330.773438 C 193.605469 330.773438 183.875 340.503906 183.875 352.515625 C 183.875 364.527344 193.605469 374.257812 205.613281 374.257812 L 389.644531 374.257812 C 401.675781 374.257812 411.402344 364.527344 411.402344 352.515625 Z M 357.308594 115.617188 C 357.308594 103.605469 347.578125 93.878906 335.570312 93.878906 L 259.710938 93.878906 C 247.703125 93.878906 237.972656 103.605469 237.972656 115.617188 C 237.972656 127.632812 247.703125 137.359375 259.710938 137.359375 L 335.546875 137.359375 C 347.578125 137.359375 357.308594 127.632812 357.308594 115.617188 Z M 401.65625 137.359375 L 193.625 137.359375 C 177.613281 137.359375 165.933594 152.566406 170.101562 168.042969 L 213.789062 330.773438 L 381.511719 330.773438 L 425.199219 168.042969 C 429.347656 152.566406 417.6875 137.359375 401.65625 137.359375 Z M 344.738281 33.902344 L 316.671875 33.902344 L 316.671875 5.832031 L 284.769531 5.832031 L 284.769531 33.902344 L 256.703125 33.902344 L 256.703125 65.828125 L 284.769531 65.828125 L 284.769531 93.898438 L 316.691406 93.898438 L 316.691406 65.808594 L 344.757812 65.808594 L 344.757812 33.902344 Z M 344.738281 33.902344 " fill-opacity="1" fill-rule="nonzero"/><g clip-path="url(#8d55b1b0a6)"><path fill="#010101" d="M 385.601562 636.03125 L 209.703125 636.03125 C 208.25 636.03125 206.859375 635.429688 205.882812 634.351562 C 204.910156 633.273438 204.410156 631.859375 204.535156 630.410156 L 221.980469 417.203125 C 222.210938 414.503906 224.449219 412.429688 227.144531 412.429688 L 368.175781 412.429688 C 370.871094 412.429688 373.132812 414.503906 373.339844 417.203125 L 390.785156 630.410156 C 390.910156 631.859375 390.414062 633.273438 389.4375 634.351562 C 388.421875 635.429688 387.050781 636.03125 385.601562 636.03125 Z M 215.324219 625.65625 L 379.980469 625.65625 L 363.382812 422.824219 L 231.894531 422.824219 Z M 134.652344 805.339844 C 125.984375 805.339844 117.851562 801.75 111.753906 795.234375 C 105.738281 788.804688 102.441406 780.296875 102.441406 771.253906 C 102.441406 759.511719 108.25 748.472656 117.664062 742.292969 L 144.300781 717.023438 C 169.5625 693.039062 184.644531 660.824219 184.644531 630.84375 C 184.644531 627.980469 186.96875 625.65625 189.828125 625.65625 L 403.625 625.65625 C 404.351562 625.65625 405.078125 625.824219 405.742188 626.113281 L 407.855469 627.070312 C 409.640625 627.855469 410.824219 629.601562 410.90625 631.550781 C 412.523438 664.328125 424.867188 693.039062 445.671875 712.398438 L 477.613281 742.105469 C 487.03125 748.289062 492.859375 759.34375 492.859375 771.085938 C 492.859375 789.902344 478.402344 805.191406 460.648438 805.214844 Z M 194.871094 636.03125 C 193.3125 667.625 177.675781 699.636719 151.414062 724.554688 L 124.425781 750.152344 C 124.179688 750.382812 123.910156 750.589844 123.640625 750.777344 C 116.960938 755.007812 112.789062 762.871094 112.789062 771.253906 C 112.789062 777.664062 115.113281 783.660156 119.324219 788.160156 C 123.433594 792.558594 128.886719 794.984375 134.652344 794.984375 L 460.648438 794.839844 C 472.699219 794.839844 482.488281 784.199219 482.488281 771.128906 C 482.488281 762.707031 478.339844 754.863281 471.640625 750.609375 C 471.371094 750.445312 471.121094 750.238281 470.894531 750.03125 L 438.617188 720.011719 C 416.671875 699.597656 403.335938 669.910156 400.804688 636.050781 L 194.871094 636.050781 Z M 484.480469 840.855469 L 110.800781 840.855469 C 98.148438 840.855469 87.859375 830.566406 87.859375 817.910156 C 87.859375 805.253906 98.148438 794.964844 110.800781 794.964844 L 484.480469 794.964844 C 497.132812 794.964844 507.421875 805.253906 507.421875 817.910156 C 507.421875 830.566406 497.132812 840.855469 484.480469 840.855469 Z M 110.800781 805.339844 C 103.871094 805.339844 98.230469 810.980469 98.230469 817.910156 C 98.230469 824.839844 103.871094 830.484375 110.800781 830.484375 L 484.480469 830.484375 C 491.410156 830.484375 497.050781 824.839844 497.050781 817.910156 C 497.050781 810.980469 491.410156 805.339844 484.480469 805.339844 Z M 403.914062 422.929688 L 191.363281 422.929688 C 176.511719 422.929688 164.441406 410.855469 164.441406 396 C 164.441406 381.144531 176.511719 369.070312 191.363281 369.070312 L 403.914062 369.070312 C 418.769531 369.070312 430.839844 381.144531 430.839844 396 C 430.839844 410.855469 418.769531 422.929688 403.914062 422.929688 Z M 191.363281 379.445312 C 182.238281 379.445312 174.8125 386.871094 174.8125 396 C 174.8125 405.128906 182.238281 412.554688 191.363281 412.554688 L 403.914062 412.554688 C 413.042969 412.554688 420.46875 405.128906 420.46875 396 C 420.46875 386.871094 413.042969 379.445312 403.914062 379.445312 Z M 389.664062 379.445312 L 205.613281 379.445312 C 190.761719 379.445312 178.691406 367.371094 178.691406 352.515625 C 178.691406 337.664062 190.761719 325.589844 205.613281 325.589844 L 389.664062 325.589844 C 404.515625 325.589844 416.589844 337.664062 416.589844 352.515625 C 416.589844 367.371094 404.515625 379.445312 389.664062 379.445312 Z M 205.613281 335.960938 C 196.488281 335.960938 189.0625 343.390625 189.0625 352.515625 C 189.0625 361.644531 196.488281 369.070312 205.613281 369.070312 L 389.664062 369.070312 C 398.792969 369.070312 406.21875 361.644531 406.21875 352.515625 C 406.21875 343.390625 398.792969 335.960938 389.664062 335.960938 Z M 335.570312 142.546875 L 259.710938 142.546875 C 244.859375 142.546875 232.789062 130.472656 232.789062 115.617188 C 232.789062 100.765625 244.859375 88.691406 259.710938 88.691406 L 335.546875 88.691406 C 350.398438 88.691406 362.472656 100.765625 362.472656 115.617188 C 362.492188 130.472656 350.398438 142.546875 335.570312 142.546875 Z M 259.710938 99.0625 C 250.585938 99.0625 243.160156 106.492188 243.160156 115.617188 C 243.160156 124.746094 250.585938 132.175781 259.710938 132.175781 L 335.546875 132.175781 C 344.675781 132.175781 352.101562 124.746094 352.101562 115.617188 C 352.101562 106.492188 344.675781 99.0625 335.546875 99.0625 Z M 381.492188 335.960938 L 213.789062 335.960938 C 211.445312 335.960938 209.390625 334.386719 208.789062 332.125 L 165.082031 169.390625 C 162.675781 160.449219 164.542969 151.09375 170.164062 143.75 C 175.808594 136.40625 184.355469 132.175781 193.605469 132.175781 L 401.632812 132.175781 C 410.90625 132.175781 419.429688 136.386719 425.074219 143.75 C 430.714844 151.117188 432.5625 160.449219 430.15625 169.390625 L 386.472656 332.125 C 385.910156 334.386719 383.859375 335.960938 381.492188 335.960938 Z M 217.75 325.589844 L 377.511719 325.589844 L 420.15625 166.695312 C 421.714844 160.886719 420.511719 154.828125 416.859375 150.058594 C 413.207031 145.285156 407.648438 142.546875 401.632812 142.546875 L 193.625 142.546875 C 187.609375 142.546875 182.070312 145.285156 178.402344 150.058594 C 174.75 154.828125 173.546875 160.886719 175.101562 166.695312 Z M 229.800781 277.582031 C 232.558594 276.835938 234.199219 273.992188 233.472656 271.234375 L 214.328125 199.910156 C 213.582031 197.152344 210.738281 195.511719 207.980469 196.238281 C 205.222656 196.984375 203.582031 199.828125 204.308594 202.585938 L 223.453125 273.910156 C 224.074219 276.234375 226.171875 277.75 228.453125 277.75 C 228.886719 277.769531 229.34375 277.707031 229.800781 277.582031 Z M 316.691406 99.0625 L 284.769531 99.0625 C 281.90625 99.0625 279.582031 96.742188 279.582031 93.878906 L 279.582031 70.996094 L 256.703125 70.996094 C 253.84375 70.996094 251.519531 68.671875 251.519531 65.808594 L 251.519531 33.902344 C 251.519531 31.039062 253.84375 28.714844 256.703125 28.714844 L 279.582031 28.714844 L 279.582031 5.832031 C 279.582031 2.96875 281.90625 0.644531 284.769531 0.644531 L 316.691406 0.644531 C 319.554688 0.644531 321.878906 2.96875 321.878906 5.832031 L 321.878906 28.714844 L 344.757812 28.714844 C 347.621094 28.714844 349.941406 31.039062 349.941406 33.902344 L 349.941406 65.828125 C 349.941406 68.691406 347.621094 71.015625 344.757812 71.015625 L 321.878906 71.015625 L 321.878906 93.898438 C 321.878906 96.742188 319.554688 99.0625 316.691406 99.0625 Z M 289.953125 88.691406 L 311.507812 88.691406 L 311.507812 65.808594 C 311.507812 62.945312 313.828125 60.621094 316.691406 60.621094 L 339.570312 60.621094 L 339.570312 39.085938 L 316.691406 39.085938 C 313.828125 39.085938 311.507812 36.765625 311.507812 33.902344 L 311.507812 11.019531 L 289.953125 11.019531 L 289.953125 33.902344 C 289.953125 36.765625 287.632812 39.085938 284.769531 39.085938 L 261.890625 39.085938 L 261.890625 60.640625 L 284.769531 60.640625 C 287.632812 60.640625 289.953125 62.964844 289.953125 65.828125 Z M 289.953125 88.691406 " fill-opacity="1" fill-rule="nonzero"/></g></svg>