<svg xmlns="http://www.w3.org/2000/svg" xmlns:xlink="http://www.w3.org/1999/xlink" width="793" zoomAndPan="magnify" viewBox="0 0 594.95996 842.24997" height="1122" preserveAspectRatio="xMidYMid meet" version="1.0"><defs><clipPath id="013479bcf1"><path d="M 59.71875 1 L 526.554688 1 L 526.554688 841 L 59.71875 841 Z M 59.71875 1 " clip-rule="nonzero"/></clipPath></defs><path fill="#ffffff" d="M 193.613281 273.34375 C 160.964844 245.054688 140.460938 203.082031 141.0625 156.339844 C 142.097656 73.300781 210.777344 5.820312 293.800781 6.195312 C 377.445312 6.566406 445.148438 74.527344 445.148438 158.308594 C 445.148438 202.980469 425.660156 245.535156 395.003906 273.363281 Z M 444.421875 298.976562 C 444.421875 284.769531 432.917969 273.261719 418.71875 273.261719 L 167.453125 273.261719 C 153.253906 273.261719 141.746094 284.769531 141.746094 298.976562 C 141.746094 313.179688 153.25 324.691406 167.453125 324.691406 L 418.71875 324.691406 C 432.917969 324.691406 444.421875 313.179688 444.421875 298.976562 Z M 377.671875 601.296875 L 360.902344 324.691406 L 225.265625 324.691406 L 208.496094 601.296875 Z M 409.660156 601.296875 L 176.511719 601.296875 L 176.511719 661.230469 L 83.621094 729.398438 C 73.898438 735.160156 67.929688 745.65625 67.929688 756.957031 C 67.929688 774.667969 82.273438 789.019531 99.976562 789 L 486.214844 788.832031 C 503.894531 788.832031 518.242188 774.480469 518.242188 756.792969 L 518.242188 756.769531 C 518.242188 745.449219 512.269531 734.976562 502.546875 729.210938 L 412.683594 658.804688 Z M 521.265625 812.371094 C 521.265625 799.472656 510.820312 789.019531 497.925781 789.019531 L 88.242188 789.019531 C 75.347656 789.019531 64.902344 799.472656 64.902344 812.371094 C 64.902344 825.269531 75.347656 835.722656 88.242188 835.722656 L 497.945312 835.722656 C 510.820312 835.722656 521.265625 825.269531 521.265625 812.371094 Z M 521.265625 812.371094 " fill-opacity="1" fill-rule="nonzero"/><g clip-path="url(#013479bcf1)"><path fill="#010101" d="M 396.992188 278.527344 L 191.683594 278.527344 L 190.234375 277.261719 C 155.097656 246.839844 135.300781 202.75 135.878906 156.277344 C 136.957031 70.273438 207.730469 0.554688 293.820312 1.007812 C 380.117188 1.402344 450.308594 71.953125 450.308594 158.308594 C 450.308594 203.269531 430.925781 247.730469 398.484375 277.199219 Z M 195.582031 268.160156 L 392.992188 268.160156 C 422.449219 240.617188 439.964844 199.703125 439.964844 158.289062 C 439.964844 77.636719 374.398438 11.730469 293.777344 11.359375 C 213.429688 11.003906 147.242188 76.082031 146.246094 156.402344 C 145.707031 199.183594 163.660156 239.789062 195.582031 268.160156 Z M 186.398438 133.070312 C 194.378906 99.203125 218.300781 70.855469 250.433594 57.273438 C 253.066406 56.152344 254.308594 53.125 253.191406 50.46875 C 252.070312 47.835938 249.042969 46.59375 246.390625 47.710938 C 211.234375 62.582031 185.03125 93.605469 176.304688 130.683594 C 175.640625 133.464844 177.382812 136.265625 180.160156 136.925781 C 180.554688 137.03125 180.96875 137.074219 181.339844 137.074219 C 183.703125 137.074219 185.839844 135.453125 186.398438 133.070312 Z M 202.277344 228.757812 C 204.621094 227.097656 205.179688 223.863281 203.523438 221.539062 C 196.804688 212.042969 191.683594 201.609375 188.285156 190.535156 C 187.433594 187.796875 184.554688 186.261719 181.816406 187.09375 C 179.082031 187.945312 177.546875 190.824219 178.375 193.5625 C 182.109375 205.695312 187.703125 217.121094 195.0625 227.511719 C 196.078125 228.941406 197.675781 229.710938 199.292969 229.710938 C 200.328125 229.710938 201.386719 229.398438 202.277344 228.757812 Z M 418.71875 329.875 L 167.453125 329.875 C 150.433594 329.875 136.566406 316.023438 136.566406 298.976562 C 136.566406 281.949219 150.410156 268.074219 167.453125 268.074219 L 418.71875 268.074219 C 435.738281 268.074219 449.605469 281.929688 449.605469 298.976562 C 449.605469 316.023438 435.757812 329.875 418.71875 329.875 Z M 167.453125 278.464844 C 156.132812 278.464844 146.929688 287.671875 146.929688 298.996094 C 146.929688 310.320312 156.132812 319.527344 167.453125 319.527344 L 418.71875 319.527344 C 430.035156 319.527344 439.238281 310.320312 439.238281 298.996094 C 439.238281 287.671875 430.035156 278.464844 418.71875 278.464844 Z M 377.691406 606.480469 L 208.496094 606.480469 C 207.066406 606.480469 205.699219 605.902344 204.722656 604.84375 C 203.75 603.804688 203.230469 602.394531 203.3125 600.964844 L 220.085938 324.359375 C 220.25 321.621094 222.511719 319.484375 225.265625 319.484375 L 360.921875 319.484375 C 363.660156 319.484375 365.9375 321.621094 366.105469 324.359375 L 382.875 600.964844 C 382.957031 602.394531 382.460938 603.785156 381.488281 604.84375 C 380.511719 605.902344 379.101562 606.480469 377.691406 606.480469 Z M 213.988281 596.113281 L 372.179688 596.113281 L 356.03125 329.875 L 230.136719 329.875 Z M 99.976562 794.203125 C 90.046875 794.203125 80.699219 790.324219 73.671875 783.296875 C 66.644531 776.265625 62.765625 766.914062 62.765625 756.957031 C 62.765625 743.953125 69.667969 731.761719 80.78125 725.0625 L 171.347656 658.574219 L 171.347656 601.277344 C 171.347656 598.414062 173.671875 596.089844 176.53125 596.089844 L 409.660156 596.089844 C 412.414062 596.089844 414.695312 598.25 414.839844 601.007812 L 417.742188 656.171875 L 505.492188 724.917969 C 516.5625 731.636719 523.421875 743.789062 523.421875 756.769531 C 523.421875 777.324219 506.734375 794.015625 486.214844 794.039062 Z M 181.691406 606.480469 L 181.691406 661.230469 C 181.691406 662.890625 180.90625 664.425781 179.578125 665.417969 L 86.6875 733.605469 C 86.542969 733.710938 86.417969 733.792969 86.273438 733.875 C 78.148438 738.6875 73.109375 747.542969 73.109375 756.980469 C 73.109375 764.152344 75.910156 770.894531 80.988281 775.976562 C 86.066406 781.054688 92.804688 783.835938 99.976562 783.835938 C 99.976562 783.835938 99.976562 783.835938 99.996094 783.835938 L 486.234375 783.667969 C 501.035156 783.667969 513.078125 771.621094 513.078125 756.8125 C 513.078125 747.335938 508.042969 738.5 499.914062 733.667969 C 499.730469 733.566406 499.542969 733.421875 499.355469 733.296875 L 409.492188 662.890625 C 408.3125 661.957031 407.585938 660.585938 407.503906 659.074219 L 404.726562 606.460938 L 181.691406 606.460938 Z M 497.925781 840.90625 L 88.242188 840.90625 C 72.507812 840.90625 59.71875 828.109375 59.71875 812.371094 C 59.71875 796.628906 72.507812 783.835938 88.242188 783.835938 L 497.945312 783.835938 C 513.679688 783.835938 526.46875 796.628906 526.46875 812.371094 C 526.46875 828.109375 513.660156 840.90625 497.925781 840.90625 Z M 88.242188 794.203125 C 78.230469 794.203125 70.085938 802.355469 70.085938 812.371094 C 70.085938 822.386719 78.230469 830.535156 88.242188 830.535156 L 497.945312 830.535156 C 507.957031 830.535156 516.105469 822.386719 516.105469 812.371094 C 516.105469 802.355469 507.957031 794.203125 497.945312 794.203125 Z M 88.242188 794.203125 " fill-opacity="1" fill-rule="nonzero"/></g></svg>