<svg xmlns="http://www.w3.org/2000/svg" xmlns:xlink="http://www.w3.org/1999/xlink" width="793" zoomAndPan="magnify" viewBox="0 0 594.95996 842.24997" height="1122" preserveAspectRatio="xMidYMid meet" version="1.0"><defs><clipPath id="48aa73fcc9"><path d="M 43.171875 0 L 551.96875 0 L 551.96875 841.5 L 43.171875 841.5 Z M 43.171875 0 " clip-rule="nonzero"/></clipPath></defs><path fill="#ffffff" d="M 430.738281 600.332031 C 432.691406 639.933594 449.59375 664.847656 477.566406 690.882812 L 516.832031 727.429688 C 526.820312 733.769531 532.949219 745.277344 532.949219 757.703125 L 532.949219 757.726562 C 532.949219 777.152344 518.226562 792.902344 500.074219 792.902344 L 103.496094 793.089844 C 85.328125 793.089844 70.582031 777.339844 70.582031 757.910156 C 70.582031 745.488281 76.710938 733.976562 86.699219 727.636719 L 119.527344 696.472656 C 148.785156 668.691406 165.523438 641.617188 165.523438 599.773438 Z M 546.527344 814.699219 C 546.527344 802.769531 536.851562 793.089844 524.933594 793.089844 L 70.292969 793.089844 C 58.375 793.089844 48.695312 802.769531 48.695312 814.699219 C 48.695312 826.625 58.375 836.304688 70.292969 836.304688 L 524.933594 836.304688 C 536.851562 836.304688 546.527344 826.625 546.527344 814.699219 Z M 426.710938 600.105469 C 429.640625 600.105469 432.421875 599.378906 434.851562 598.089844 C 442.285156 594.160156 445.421875 585.125 442.742188 577.144531 C 434.519531 552.8125 399.136719 439.511719 399.136719 290.703125 L 196.089844 290.703125 C 196.089844 439.511719 160.726562 552.8125 152.484375 577.144531 C 149.78125 585.125 152.9375 594.160156 160.375 598.089844 C 162.804688 599.378906 165.585938 600.105469 168.511719 600.105469 Z M 429.347656 267.015625 C 429.347656 253.863281 418.695312 243.226562 405.574219 243.226562 L 189.652344 243.226562 C 176.507812 243.226562 165.875 253.882812 165.875 267.015625 C 165.875 280.167969 176.527344 290.804688 189.652344 290.804688 L 405.550781 290.804688 C 418.695312 290.828125 429.347656 280.167969 429.347656 267.015625 Z M 394.296875 5.195312 L 394.296875 49.722656 L 354.074219 49.722656 L 354.074219 5.195312 L 241.109375 5.195312 L 241.109375 49.722656 L 200.90625 49.722656 L 200.90625 5.195312 L 122.1875 5.195312 L 122.1875 180.703125 C 122.1875 208.898438 140.042969 234 166.6875 243.226562 L 428.539062 243.226562 C 455.179688 234 473.039062 208.898438 473.039062 180.703125 L 473.039062 5.195312 Z M 394.296875 5.195312 " fill-opacity="1" fill-rule="nonzero"/><g clip-path="url(#48aa73fcc9)"><path fill="#010101" d="M 103.476562 798.28125 C 93.238281 798.28125 83.644531 794.042969 76.4375 786.335938 C 69.316406 778.730469 65.390625 768.632812 65.390625 757.910156 C 65.390625 743.96875 72.308594 730.859375 83.480469 723.546875 L 115.957031 692.710938 C 142.597656 667.425781 160.351562 641.929688 160.351562 599.773438 C 160.351562 598.402344 160.894531 597.070312 161.867188 596.09375 C 162.84375 595.117188 164.152344 594.578125 165.542969 594.578125 C 165.542969 594.578125 165.542969 594.578125 165.566406 594.578125 L 430.78125 595.136719 C 433.542969 595.136719 435.828125 597.320312 435.953125 600.082031 C 437.882812 639.1875 455.410156 663.144531 481.136719 687.078125 L 520.074219 723.316406 C 531.265625 730.628906 538.179688 743.742188 538.179688 757.703125 C 538.179688 780 521.113281 798.097656 500.117188 798.117188 L 103.476562 798.28125 C 103.496094 798.28125 103.476562 798.28125 103.476562 798.28125 Z M 170.652344 604.964844 C 169.46875 641.617188 155.429688 669.5625 123.121094 700.234375 L 90.289062 731.398438 C 90.039062 731.628906 89.769531 731.835938 89.5 732.023438 C 81.050781 737.382812 75.796875 747.292969 75.796875 757.890625 C 75.796875 765.972656 78.722656 773.535156 84.039062 779.230469 C 89.25 784.820312 96.167969 787.894531 103.496094 787.894531 C 103.496094 787.894531 103.496094 787.894531 103.515625 787.894531 L 500.117188 787.707031 C 515.378906 787.707031 527.820312 774.242188 527.820312 757.726562 C 527.820312 747.085938 522.566406 737.175781 514.113281 731.816406 C 513.84375 731.648438 513.59375 731.441406 513.34375 731.234375 L 474.078125 694.683594 C 447.582031 670.023438 429.183594 645.210938 425.921875 605.527344 Z M 86.699219 727.636719 Z M 524.933594 841.5 L 70.292969 841.5 C 55.527344 841.5 43.503906 829.46875 43.503906 814.699219 C 43.503906 799.925781 55.527344 787.894531 70.292969 787.894531 L 524.933594 787.894531 C 539.695312 787.894531 551.71875 799.925781 551.71875 814.699219 C 551.71875 829.46875 539.695312 841.5 524.933594 841.5 Z M 70.292969 798.28125 C 61.238281 798.28125 53.886719 805.636719 53.886719 814.699219 C 53.886719 823.757812 61.238281 831.113281 70.292969 831.113281 L 524.933594 831.113281 C 533.984375 831.113281 541.335938 823.757812 541.335938 814.699219 C 541.335938 805.636719 533.984375 798.28125 524.933594 798.28125 Z M 426.710938 605.296875 L 168.511719 605.296875 C 168.511719 605.296875 168.511719 605.296875 168.492188 605.296875 C 164.816406 605.296875 161.183594 604.382812 157.945312 602.679688 C 148.476562 597.671875 144.03125 585.976562 147.582031 575.484375 C 154.808594 554.082031 190.898438 439.761719 190.898438 290.703125 C 190.898438 287.835938 193.222656 285.507812 196.089844 285.507812 L 399.136719 285.507812 C 402 285.507812 404.328125 287.835938 404.328125 290.703125 C 404.328125 439.761719 440.417969 554.082031 447.644531 575.484375 C 451.195312 585.976562 446.730469 597.671875 437.261719 602.679688 C 434.042969 604.382812 430.386719 605.296875 426.710938 605.296875 Z M 168.511719 594.910156 L 426.710938 594.910156 C 426.710938 594.910156 426.710938 594.910156 426.730469 594.910156 C 428.746094 594.910156 430.65625 594.433594 432.441406 593.496094 C 437.449219 590.835938 439.773438 584.519531 437.84375 578.808594 C 430.59375 557.386719 394.816406 444.042969 393.984375 295.898438 L 201.261719 295.898438 C 200.429688 444.042969 164.652344 557.386719 157.402344 578.808594 C 155.472656 584.519531 157.777344 590.835938 162.804688 593.496094 C 164.566406 594.433594 166.5 594.910156 168.511719 594.910156 Z M 405.550781 296.019531 L 189.652344 296.019531 C 173.683594 296.019531 160.683594 283.015625 160.683594 267.035156 C 160.683594 251.058594 173.683594 238.050781 189.652344 238.050781 L 405.550781 238.050781 C 421.519531 238.050781 434.519531 251.058594 434.519531 267.035156 C 434.519531 283.015625 421.539062 296.019531 405.550781 296.019531 Z M 189.652344 248.417969 C 179.394531 248.417969 171.066406 256.773438 171.066406 267.015625 C 171.066406 277.28125 179.414062 285.613281 189.652344 285.613281 L 405.550781 285.613281 C 415.808594 285.613281 424.136719 277.257812 424.136719 267.015625 C 424.136719 256.75 415.789062 248.417969 405.550781 248.417969 Z M 429.410156 248.417969 L 165.8125 248.417969 L 164.984375 248.128906 C 136.285156 238.175781 116.996094 211.082031 116.996094 180.683594 L 116.996094 0 L 206.097656 0 L 206.097656 44.527344 L 235.9375 44.527344 L 235.9375 0 L 359.285156 0 L 359.285156 44.527344 L 389.125 44.527344 L 389.125 0 L 478.230469 0 L 478.230469 180.703125 C 478.230469 211.101562 458.941406 238.195312 430.242188 248.148438 Z M 167.578125 238.03125 L 427.644531 238.03125 C 451.734375 229.304688 467.847656 206.386719 467.847656 180.703125 L 467.847656 10.390625 L 399.507812 10.390625 L 399.507812 54.914062 L 348.902344 54.914062 L 348.902344 10.390625 L 246.320312 10.390625 L 246.320312 54.914062 L 195.714844 54.914062 L 195.714844 10.390625 L 127.378906 10.390625 L 127.378906 180.703125 C 127.378906 206.386719 143.492188 229.304688 167.578125 238.03125 Z M 167.578125 238.03125 " fill-opacity="1" fill-rule="nonzero"/></g></svg>