<svg xmlns="http://www.w3.org/2000/svg" xmlns:xlink="http://www.w3.org/1999/xlink" width="793" zoomAndPan="magnify" viewBox="0 0 594.95996 842.24997" height="1122" preserveAspectRatio="xMidYMid meet" version="1.0"><defs><clipPath id="4e92e91121"><path d="M 0.246094 0 L 594.675781 0 L 594.675781 841.5 L 0.246094 841.5 Z M 0.246094 0 " clip-rule="nonzero"/></clipPath><clipPath id="366a24f48c"><path d="M 49 0 L 545 0 L 545 841.5 L 49 841.5 Z M 49 0 " clip-rule="nonzero"/></clipPath></defs><g clip-path="url(#4e92e91121)"><path fill="#ffffff" d="M 0.246094 0 L 595.214844 0 L 595.214844 841.5 L 0.246094 841.5 Z M 0.246094 0 " fill-opacity="1" fill-rule="nonzero"/><path fill="#ffffff" d="M 0.246094 0 L 595.214844 0 L 595.214844 841.5 L 0.246094 841.5 Z M 0.246094 0 " fill-opacity="1" fill-rule="nonzero"/></g><g clip-path="url(#366a24f48c)"><path fill="#5e17eb" d="M 543.660156 399.625 C 546.207031 386.367188 540.585938 308.832031 540.585938 308.832031 C 529.875 325.167969 528.867188 330.785156 486.496094 367.488281 C 444.175781 404.234375 425.777344 405.246094 425.777344 405.246094 C 463.007812 376.183594 485.96875 336.886719 497.691406 310.371094 C 509.410156 283.855469 519.113281 239.996094 518.585938 219.578125 C 518.058594 199.164062 491.542969 165.007812 491.542969 165.007812 C 489.523438 181.339844 481.835938 202.765625 468.578125 231.300781 C 455.320312 259.882812 442.542969 269.105469 442.542969 269.105469 C 449.699219 249.796875 451.71875 233.847656 457.339844 200.699219 C 462.957031 167.554688 459.882812 125.234375 450.710938 109.382812 C 441.535156 93.578125 413.480469 82.863281 413.480469 82.863281 C 417.5625 110.917969 410.933594 144.066406 404.304688 168.035156 C 397.675781 192.007812 389.507812 189.988281 389.507812 189.988281 C 392.582031 177.257812 394.601562 152.757812 394.121094 136.425781 C 393.59375 120.09375 394.121094 75.226562 378.316406 62.449219 C 362.511719 49.71875 310.488281 42.5625 292.859375 41.550781 C 275.277344 40.542969 268.648438 39.007812 268.648438 39.007812 C 222.722656 0.480469 189.097656 1.777344 172.234375 1.007812 C 155.421875 0.238281 155.902344 6.871094 156.910156 9.175781 C 157.921875 11.480469 196.976562 70.136719 201.730469 74.890625 C 206.535156 79.695312 219.695312 90.933594 211.675781 91.894531 C 203.652344 92.855469 191.785156 96.890625 180.113281 102.800781 C 168.441406 108.707031 148.746094 135.371094 142.644531 147.089844 C 136.542969 158.8125 120.210938 181.773438 102.339844 206.753906 C 84.472656 231.734375 61.269531 243.984375 56.945312 248.066406 C 52.621094 252.148438 50.074219 255.464844 49.546875 264.640625 C 49.019531 273.8125 49.546875 286.304688 49.546875 301.628906 C 49.546875 316.953125 54.160156 328.382812 58.722656 334.535156 C 63.335938 340.632812 69.195312 339.386719 71.742188 337.847656 C 74.285156 336.3125 97.25 321.273438 109.5 314.886719 C 121.75 308.496094 121.75 321.273438 120.449219 323.582031 C 119.152344 325.886719 112.285156 331.988281 103.878906 341.164062 C 95.472656 350.335938 94.941406 356.488281 94.941406 365.132812 C 94.941406 373.828125 101.574219 373.828125 101.574219 373.828125 C 101.574219 373.828125 132.414062 374.597656 146.726562 373.828125 C 160.996094 373.058594 163.828125 366.429688 166.855469 362.105469 C 169.929688 357.785156 173.484375 350.625 186.742188 334.054688 C 200 317.480469 209.703125 310.609375 230.839844 310.609375 C 252.027344 310.609375 260.433594 306.71875 260.433594 306.71875 C 309.574219 284.335938 305.78125 225.246094 305.78125 225.246094 C 320.335938 277.082031 277.679688 308.066406 277.679688 308.066406 C 297.566406 312.292969 323.21875 332.949219 304.820312 369.265625 C 286.46875 405.628906 230.21875 458.039062 196.925781 484.027344 C 163.636719 510.0625 148.457031 524.808594 136.976562 544.984375 C 125.496094 565.113281 129.820312 582.457031 136.734375 592.925781 C 143.605469 603.398438 183.234375 647.257812 188.375 652.734375 C 193.5625 658.210938 190.105469 660.324219 186.214844 660.5625 C 182.324219 660.804688 177.902344 660.707031 174.011719 663.398438 C 170.121094 666.136719 171.035156 668.492188 171.035156 668.492188 C 171.753906 670.84375 180.738281 671.132812 182.707031 672.332031 C 184.675781 673.535156 184.964844 677.425781 184.964844 679.539062 C 184.964844 681.652344 186.839844 691.117188 172.285156 694.140625 C 157.726562 697.167969 154.03125 703.605469 154.03125 706.632812 C 154.03125 709.660156 158.976562 714.847656 167.625 714.847656 C 176.269531 714.847656 179.394531 720.324219 179.394531 723.0625 C 179.394531 725.800781 178.480469 734.015625 158.976562 741.363281 C 139.472656 748.664062 115.023438 761.492188 115.023438 775.46875 C 115.023438 789.496094 131.117188 799.824219 131.117188 799.824219 C 122.46875 800.449219 110.699219 804.101562 110.699219 819.953125 C 110.699219 835.804688 119.96875 841.472656 119.96875 841.472656 L 512.246094 841.472656 C 512.246094 841.472656 521.515625 835.804688 521.515625 819.953125 C 521.515625 804.101562 509.746094 800.449219 501.101562 799.824219 C 501.101562 799.824219 517.191406 789.449219 517.191406 775.46875 C 517.191406 761.441406 492.742188 748.664062 473.238281 741.363281 C 453.734375 734.0625 452.824219 725.847656 452.824219 723.0625 C 452.824219 720.324219 455.898438 714.847656 464.59375 714.847656 C 473.238281 714.847656 478.1875 709.660156 478.1875 706.632812 C 478.1875 703.605469 474.488281 697.167969 459.933594 694.140625 C 445.378906 691.117188 447.25 681.652344 447.25 679.539062 C 447.25 677.425781 449.84375 674.160156 456.761719 672.09375 C 465.792969 669.402344 463.101562 663.78125 456.953125 663.351562 C 450.804688 662.917969 442.398438 662.246094 445.855469 658.402344 C 449.316406 654.558594 456.183594 648.988281 461.804688 648.988281 C 467.425781 648.988281 487.074219 651.003906 492.644531 646.441406 C 498.265625 641.828125 506.144531 617.378906 506.144531 617.378906 C 478.617188 627.5625 430.148438 620.453125 430.148438 620.453125 C 442.878906 615.839844 466.898438 605.65625 482.171875 598.019531 C 497.496094 590.382812 515.320312 581.207031 520.941406 566.410156 C 526.558594 551.613281 535.207031 499.0625 535.207031 499.0625 C 485.199219 532.734375 403.632812 534.753906 403.632812 534.753906 C 420.972656 523.511719 463.296875 494.449219 482.175781 476.628906 C 501.339844 458.808594 541.117188 412.882812 543.660156 399.625 Z M 172.332031 15.324219 C 170.3125 12.25 172.089844 12.539062 177.183594 17.101562 C 182.277344 21.714844 217.96875 71.671875 221.808594 77.292969 C 225.652344 82.914062 228.441406 93.625 220.273438 84.929688 C 212.105469 76.234375 172.332031 15.324219 172.332031 15.324219 Z M 63.957031 304.460938 C 65.113281 311.042969 67.65625 317.382812 70.589844 322.378906 C 73.039062 326.558594 71.789062 332.082031 67.175781 326.078125 C 64.390625 322.429688 59.875 314.214844 57.570312 305.808594 C 55.265625 297.402344 55.550781 281.066406 56.03125 274.96875 C 56.5625 268.867188 56.5625 261.707031 60.644531 255.078125 C 64.726562 248.449219 76.207031 240.285156 76.207031 240.285156 C 79.761719 237.59375 78.996094 238.890625 76.976562 241.964844 C 74.960938 245.039062 67.035156 254.070312 64.96875 259.691406 C 63.429688 263.964844 63.191406 271.699219 62.949219 280.347656 C 62.660156 288.945312 62.804688 297.878906 63.957031 304.460938 Z M 89.753906 287.984375 C 86.871094 292.019531 88.265625 285.917969 88.410156 281.5 C 88.601562 276.3125 89.371094 272.902344 86.296875 269.058594 C 83.175781 265.167969 80.578125 264.253906 76.738281 266.175781 C 73.519531 267.808594 71.742188 268.289062 74.816406 264.253906 C 78.609375 259.308594 86.390625 257.242188 92.492188 265.457031 C 98.640625 273.71875 92.636719 283.996094 89.753906 287.984375 Z M 141.25 183.886719 C 133.085938 194.601562 116.753906 216.554688 100.46875 227.265625 C 100.46875 227.265625 124.964844 199.210938 135.152344 182.398438 C 145.335938 165.585938 164.742188 130.902344 174.925781 120.671875 C 185.109375 110.488281 196.351562 105.347656 209.082031 102.800781 C 221.808594 100.253906 189.191406 118.605469 185.109375 123.214844 C 181.027344 127.78125 149.371094 173.175781 141.25 183.886719 Z M 221.808594 168.324219 C 217.199219 174.039062 205.957031 175.722656 209.320312 173.414062 C 212.203125 171.492188 214.699219 170.871094 217.582031 165.777344 C 221.042969 159.675781 217.582031 157.226562 217.582031 157.226562 C 216.71875 152.855469 223.585938 153.71875 225.027344 156.699219 C 226.664062 160.15625 226.421875 162.605469 221.808594 168.324219 Z M 208.167969 151.992188 C 202.546875 156.746094 194.382812 163.085938 190.203125 169.957031 C 185.972656 176.828125 183.332031 184.128906 182.179688 176.828125 C 182.179688 176.828125 182.035156 161.886719 198.558594 150.453125 C 215.085938 138.972656 227.382812 141.519531 238.429688 143.199219 C 251.015625 145.121094 217.726562 143.96875 208.167969 151.992188 Z M 163.011719 552.914062 C 155.757812 567.082031 159.890625 581.398438 164.550781 588.890625 C 169.929688 597.492188 177.953125 609.835938 184.390625 618.675781 C 185.398438 620.070312 183.621094 621.75 182.324219 620.691406 C 171.324219 611.949219 154.171875 597.875 148.121094 590.046875 C 138.945312 578.179688 140.484375 560.984375 147.738281 548.734375 C 155.277344 536.050781 182.996094 509.917969 205.046875 493.296875 C 206.246094 492.386719 207.785156 493.921875 206.824219 495.121094 C 194.859375 509.679688 168.585938 542.054688 163.011719 552.914062 Z M 180.019531 668.921875 C 180.019531 668.921875 177.28125 668.683594 177.28125 666.183594 C 177.28125 663.6875 180.066406 663.496094 180.066406 663.496094 L 303.136719 664.023438 Z M 164.835938 708.648438 C 164.835938 708.648438 159.792969 708.363281 159.792969 705.289062 C 159.792969 702.214844 164.835938 701.925781 164.835938 701.925781 L 390.375 701.925781 Z M 439.46875 810.730469 L 321.488281 814.523438 L 126.359375 816.589844 C 126.359375 816.589844 119.347656 816.207031 119.347656 812.171875 C 119.347656 808.136719 126.359375 807.75 126.359375 807.75 L 439.421875 807.75 L 439.421875 810.730469 Z M 497.59375 772.347656 L 135.292969 785.75 C 135.292969 785.75 127.175781 785.171875 127.175781 779.023438 C 127.175781 772.875 135.292969 772.300781 135.292969 772.300781 L 497.59375 772.300781 Z M 497.59375 772.347656 " fill-opacity="1" fill-rule="nonzero"/></g></svg>