<svg xmlns="http://www.w3.org/2000/svg" xmlns:xlink="http://www.w3.org/1999/xlink" width="793" zoomAndPan="magnify" viewBox="0 0 594.95996 842.24997" height="1122" preserveAspectRatio="xMidYMid meet" version="1.0"><defs><clipPath id="c7592c14ab"><path d="M 87.859375 0 L 507.484375 0 L 507.484375 841 L 87.859375 841 Z M 87.859375 0 " clip-rule="nonzero"/></clipPath></defs><path fill="#737373" d="M 209.648438 630.570312 L 227.085938 417.457031 L 368.078125 417.457031 L 385.515625 630.570312 Z M 403.515625 630.570312 L 189.78125 630.570312 C 189.78125 664.933594 171.863281 697.65625 147.828125 720.46875 L 120.851562 746.054688 C 112.640625 751.261719 107.601562 760.695312 107.601562 770.921875 C 107.601562 786.886719 119.710938 799.828125 134.640625 799.808594 L 460.542969 799.660156 C 475.472656 799.660156 487.5625 786.722656 487.5625 770.773438 L 487.5625 770.753906 C 487.5625 760.550781 482.523438 751.09375 474.3125 745.890625 L 442.046875 715.882812 C 419.046875 694.503906 407.25 664.0625 405.632812 631.527344 Z M 502.121094 817.558594 C 502.121094 807.75 494.179688 799.808594 484.371094 799.808594 L 110.792969 799.808594 C 100.984375 799.808594 93.042969 807.75 93.042969 817.558594 C 93.042969 827.367188 100.984375 835.308594 110.792969 835.308594 L 484.371094 835.308594 C 494.179688 835.308594 502.121094 827.367188 502.121094 817.558594 Z M 425.558594 395.828125 C 425.558594 383.824219 415.835938 374.097656 403.828125 374.097656 L 191.335938 374.097656 C 179.328125 374.097656 169.601562 383.824219 169.601562 395.828125 C 169.601562 407.835938 179.328125 417.5625 191.335938 417.5625 L 403.828125 417.5625 C 415.835938 417.5625 425.558594 407.835938 425.558594 395.828125 Z M 411.3125 352.363281 C 411.3125 340.359375 401.589844 330.632812 389.582031 330.632812 L 205.582031 330.632812 C 193.574219 330.632812 183.851562 340.359375 183.851562 352.363281 C 183.851562 364.371094 193.574219 374.097656 205.582031 374.097656 L 389.5625 374.097656 C 401.589844 374.097656 411.3125 364.371094 411.3125 352.363281 Z M 357.230469 115.570312 C 357.230469 103.5625 347.507812 93.835938 335.5 93.835938 L 259.664062 93.835938 C 247.65625 93.835938 237.933594 103.5625 237.933594 115.570312 C 237.933594 127.574219 247.65625 137.300781 259.664062 137.300781 L 335.476562 137.300781 C 347.507812 137.300781 357.230469 127.574219 357.230469 115.570312 Z M 401.566406 137.300781 L 193.597656 137.300781 C 177.585938 137.300781 165.914062 152.5 170.082031 167.972656 L 213.753906 330.632812 L 381.433594 330.632812 L 425.105469 167.972656 C 429.25 152.5 417.597656 137.300781 401.566406 137.300781 Z M 344.664062 33.886719 L 316.609375 33.886719 L 316.609375 5.828125 L 284.714844 5.828125 L 284.714844 33.886719 L 256.65625 33.886719 L 256.65625 65.800781 L 284.714844 65.800781 L 284.714844 93.859375 L 316.628906 93.859375 L 316.628906 65.78125 L 344.6875 65.78125 L 344.6875 33.886719 Z M 344.664062 33.886719 " fill-opacity="1" fill-rule="nonzero"/><g clip-path="url(#c7592c14ab)"><path fill="#010101" d="M 385.515625 635.757812 L 209.667969 635.757812 C 208.214844 635.757812 206.828125 635.15625 205.851562 634.078125 C 204.878906 633 204.378906 631.589844 204.503906 630.136719 L 221.945312 417.023438 C 222.171875 414.328125 224.410156 412.253906 227.105469 412.253906 L 368.097656 412.253906 C 370.792969 412.253906 373.054688 414.328125 373.261719 417.023438 L 390.699219 630.136719 C 390.824219 631.589844 390.328125 633 389.351562 634.078125 C 388.335938 635.15625 386.96875 635.757812 385.515625 635.757812 Z M 215.285156 625.386719 L 379.898438 625.386719 L 363.308594 422.640625 L 231.855469 422.640625 Z M 134.640625 804.992188 C 125.972656 804.992188 117.84375 801.402344 111.746094 794.890625 C 105.734375 788.464844 102.4375 779.960938 102.4375 770.921875 C 102.4375 759.183594 108.242188 748.152344 117.65625 741.972656 L 144.285156 716.714844 C 169.542969 692.742188 184.617188 660.539062 184.617188 630.574219 C 184.617188 627.710938 186.941406 625.386719 189.800781 625.386719 L 403.539062 625.386719 C 404.261719 625.386719 404.988281 625.554688 405.652344 625.84375 L 407.769531 626.796875 C 409.550781 627.585938 410.734375 629.328125 410.816406 631.277344 C 412.433594 664.042969 424.773438 692.742188 445.570312 712.089844 L 477.507812 741.785156 C 486.921875 747.964844 492.746094 759.015625 492.746094 770.753906 C 492.746094 789.5625 478.292969 804.847656 460.542969 804.867188 Z M 194.839844 635.757812 C 193.285156 667.339844 177.648438 699.335938 151.394531 724.242188 L 124.417969 749.832031 C 124.167969 750.058594 123.898438 750.265625 123.628906 750.453125 C 116.953125 754.683594 112.785156 762.542969 112.785156 770.921875 C 112.785156 777.328125 115.105469 783.320312 119.316406 787.820312 C 123.421875 792.21875 128.875 794.644531 134.640625 794.644531 L 460.542969 794.5 C 472.589844 794.5 482.378906 783.859375 482.378906 770.796875 C 482.378906 762.375 478.230469 754.539062 471.535156 750.285156 C 471.265625 750.121094 471.015625 749.914062 470.789062 749.707031 L 438.519531 719.699219 C 416.582031 699.292969 403.246094 669.621094 400.71875 635.777344 L 194.839844 635.777344 Z M 484.371094 840.492188 L 110.792969 840.492188 C 98.144531 840.492188 87.859375 830.207031 87.859375 817.558594 C 87.859375 804.90625 98.144531 794.621094 110.792969 794.621094 L 484.371094 794.621094 C 497.019531 794.621094 507.304688 804.90625 507.304688 817.558594 C 507.304688 830.207031 497.019531 840.492188 484.371094 840.492188 Z M 110.792969 804.992188 C 103.867188 804.992188 98.226562 810.632812 98.226562 817.558594 C 98.226562 824.484375 103.867188 830.125 110.792969 830.125 L 484.371094 830.125 C 491.296875 830.125 496.9375 824.484375 496.9375 817.558594 C 496.9375 810.632812 491.296875 804.992188 484.371094 804.992188 Z M 403.828125 422.746094 L 191.335938 422.746094 C 176.488281 422.746094 164.417969 410.675781 164.417969 395.828125 C 164.417969 380.980469 176.488281 368.914062 191.335938 368.914062 L 403.828125 368.914062 C 418.675781 368.914062 430.746094 380.980469 430.746094 395.828125 C 430.746094 410.675781 418.675781 422.746094 403.828125 422.746094 Z M 191.335938 379.28125 C 182.210938 379.28125 174.789062 386.707031 174.789062 395.828125 C 174.789062 404.953125 182.210938 412.378906 191.335938 412.378906 L 403.828125 412.378906 C 412.953125 412.378906 420.375 404.953125 420.375 395.828125 C 420.375 386.707031 412.953125 379.28125 403.828125 379.28125 Z M 389.582031 379.28125 L 205.582031 379.28125 C 190.734375 379.28125 178.664062 367.210938 178.664062 352.363281 C 178.664062 337.515625 190.734375 325.449219 205.582031 325.449219 L 389.582031 325.449219 C 404.429688 325.449219 416.496094 337.515625 416.496094 352.363281 C 416.496094 367.210938 404.429688 379.28125 389.582031 379.28125 Z M 205.582031 335.816406 C 196.457031 335.816406 189.035156 343.242188 189.035156 352.363281 C 189.035156 361.488281 196.457031 368.914062 205.582031 368.914062 L 389.582031 368.914062 C 398.707031 368.914062 406.128906 361.488281 406.128906 352.363281 C 406.128906 343.242188 398.707031 335.816406 389.582031 335.816406 Z M 335.5 142.484375 L 259.664062 142.484375 C 244.816406 142.484375 232.746094 130.417969 232.746094 115.570312 C 232.746094 100.722656 244.816406 88.652344 259.664062 88.652344 L 335.476562 88.652344 C 350.328125 88.652344 362.394531 100.722656 362.394531 115.570312 C 362.414062 130.417969 350.328125 142.484375 335.5 142.484375 Z M 259.664062 99.019531 C 250.539062 99.019531 243.117188 106.445312 243.117188 115.570312 C 243.117188 124.695312 250.539062 132.117188 259.664062 132.117188 L 335.480469 132.117188 C 344.601562 132.117188 352.027344 124.695312 352.027344 115.570312 C 352.027344 106.445312 344.601562 99.019531 335.480469 99.019531 Z M 381.410156 335.816406 L 213.753906 335.816406 C 211.410156 335.816406 209.355469 334.242188 208.753906 331.980469 L 165.0625 169.320312 C 162.65625 160.382812 164.523438 151.03125 170.140625 143.6875 C 175.78125 136.347656 184.328125 132.117188 193.574219 132.117188 L 401.546875 132.117188 C 410.816406 132.117188 419.339844 136.328125 424.980469 143.6875 C 430.621094 151.050781 432.464844 160.382812 430.058594 169.320312 L 386.386719 331.980469 C 385.828125 334.242188 383.773438 335.816406 381.410156 335.816406 Z M 217.714844 325.449219 L 377.429688 325.449219 L 420.066406 166.625 C 421.621094 160.816406 420.417969 154.761719 416.765625 149.992188 C 413.117188 145.222656 407.558594 142.484375 401.546875 142.484375 L 193.597656 142.484375 C 187.582031 142.484375 182.046875 145.222656 178.375 149.992188 C 174.726562 154.761719 173.523438 160.816406 175.078125 166.625 Z M 229.761719 277.460938 C 232.519531 276.714844 234.15625 273.875 233.433594 271.117188 L 214.292969 199.824219 C 213.546875 197.066406 210.703125 195.425781 207.945312 196.152344 C 205.1875 196.898438 203.550781 199.742188 204.277344 202.5 L 223.414062 273.792969 C 224.039062 276.113281 226.132812 277.628906 228.414062 277.628906 C 228.847656 277.648438 229.304688 277.585938 229.761719 277.460938 Z M 316.628906 99.019531 L 284.714844 99.019531 C 281.851562 99.019531 279.53125 96.699219 279.53125 93.835938 L 279.53125 70.964844 L 256.65625 70.964844 C 253.796875 70.964844 251.472656 68.640625 251.472656 65.78125 L 251.472656 33.886719 C 251.472656 31.023438 253.796875 28.703125 256.65625 28.703125 L 279.53125 28.703125 L 279.53125 5.828125 C 279.53125 2.96875 281.851562 0.644531 284.714844 0.644531 L 316.628906 0.644531 C 319.492188 0.644531 321.8125 2.96875 321.8125 5.828125 L 321.8125 28.703125 L 344.6875 28.703125 C 347.546875 28.703125 349.871094 31.023438 349.871094 33.886719 L 349.871094 65.800781 C 349.871094 68.664062 347.546875 70.984375 344.6875 70.984375 L 321.8125 70.984375 L 321.8125 93.859375 C 321.8125 96.699219 319.492188 99.019531 316.628906 99.019531 Z M 289.898438 88.652344 L 311.445312 88.652344 L 311.445312 65.78125 C 311.445312 62.917969 313.765625 60.59375 316.628906 60.59375 L 339.5 60.59375 L 339.5 39.070312 L 316.628906 39.070312 C 313.765625 39.070312 311.445312 36.746094 311.445312 33.886719 L 311.445312 11.011719 L 289.898438 11.011719 L 289.898438 33.886719 C 289.898438 36.746094 287.574219 39.070312 284.714844 39.070312 L 261.839844 39.070312 L 261.839844 60.617188 L 284.714844 60.617188 C 287.574219 60.617188 289.898438 62.9375 289.898438 65.800781 Z M 289.898438 88.652344 " fill-opacity="1" fill-rule="nonzero"/></g></svg>