<svg xmlns="http://www.w3.org/2000/svg" xmlns:xlink="http://www.w3.org/1999/xlink" width="793" zoomAndPan="magnify" viewBox="0 0 594.95996 842.24997" height="1122" preserveAspectRatio="xMidYMid meet" version="1.0"><defs><clipPath id="8c8dfc2b16"><path d="M 43.171875 0 L 551.96875 0 L 551.96875 841.5 L 43.171875 841.5 Z M 43.171875 0 " clip-rule="nonzero"/></clipPath></defs><path fill="#737373" d="M 430.800781 600.074219 C 432.753906 639.660156 449.660156 664.5625 477.636719 690.585938 L 516.910156 727.117188 C 526.898438 733.453125 533.027344 744.957031 533.027344 757.375 L 533.027344 757.398438 C 533.027344 776.816406 518.300781 792.558594 500.148438 792.558594 L 103.507812 792.746094 C 85.332031 792.746094 70.589844 777.003906 70.589844 757.585938 C 70.589844 745.164062 76.714844 733.660156 86.703125 727.324219 L 119.539062 696.171875 C 148.804688 668.402344 165.542969 641.339844 165.542969 599.511719 Z M 546.609375 814.347656 C 546.609375 802.425781 536.929688 792.746094 525.011719 792.746094 L 70.296875 792.746094 C 58.375 792.746094 48.699219 802.425781 48.699219 814.347656 C 48.699219 826.265625 58.375 835.945312 70.296875 835.945312 L 525.011719 835.945312 C 536.929688 835.945312 546.609375 826.265625 546.609375 814.347656 Z M 426.773438 599.84375 C 429.703125 599.84375 432.484375 599.117188 434.914062 597.832031 C 442.351562 593.90625 445.484375 584.871094 442.808594 576.894531 C 434.582031 552.574219 399.191406 439.324219 399.191406 290.578125 L 196.113281 290.578125 C 196.113281 439.324219 160.746094 552.574219 152.5 576.894531 C 149.800781 584.871094 152.957031 593.90625 160.390625 597.832031 C 162.824219 599.117188 165.605469 599.84375 168.535156 599.84375 Z M 429.410156 266.898438 C 429.410156 253.753906 418.757812 243.121094 405.628906 243.121094 L 189.675781 243.121094 C 176.53125 243.121094 165.894531 253.773438 165.894531 266.898438 C 165.894531 280.046875 176.550781 290.679688 189.675781 290.679688 L 405.609375 290.679688 C 418.757812 290.703125 429.410156 280.046875 429.410156 266.898438 Z M 394.351562 5.191406 L 394.351562 49.699219 L 354.125 49.699219 L 354.125 5.191406 L 241.140625 5.191406 L 241.140625 49.699219 L 200.933594 49.699219 L 200.933594 5.191406 L 122.199219 5.191406 L 122.199219 180.625 C 122.199219 208.808594 140.058594 233.898438 166.707031 243.121094 L 428.601562 243.121094 C 455.246094 233.898438 473.109375 208.808594 473.109375 180.625 L 473.109375 5.191406 Z M 394.351562 5.191406 " fill-opacity="1" fill-rule="nonzero"/><g clip-path="url(#8c8dfc2b16)"><path fill="#010101" d="M 103.484375 797.9375 C 93.246094 797.9375 83.652344 793.703125 76.445312 785.996094 C 69.320312 778.394531 65.394531 768.300781 65.394531 757.585938 C 65.394531 743.648438 72.3125 730.542969 83.484375 723.234375 L 115.96875 692.410156 C 142.613281 667.136719 160.371094 641.652344 160.371094 599.511719 C 160.371094 598.140625 160.910156 596.8125 161.886719 595.835938 C 162.863281 594.859375 164.171875 594.320312 165.5625 594.320312 C 165.5625 594.320312 165.5625 594.320312 165.585938 594.320312 L 430.84375 594.882812 C 433.605469 594.882812 435.890625 597.0625 436.015625 599.824219 C 437.945312 638.910156 455.476562 662.859375 481.207031 686.785156 L 520.148438 723.003906 C 531.34375 730.316406 538.261719 743.421875 538.261719 757.375 C 538.261719 779.660156 521.1875 797.75 500.191406 797.773438 L 103.484375 797.9375 C 103.507812 797.9375 103.484375 797.9375 103.484375 797.9375 Z M 170.671875 604.707031 C 169.488281 641.339844 155.449219 669.277344 123.132812 699.929688 L 90.296875 731.082031 C 90.046875 731.3125 89.777344 731.519531 89.507812 731.707031 C 81.054688 737.066406 75.800781 746.972656 75.800781 757.5625 C 75.800781 765.644531 78.730469 773.203125 84.046875 778.894531 C 89.257812 784.480469 96.175781 787.554688 103.507812 787.554688 C 103.507812 787.554688 103.507812 787.554688 103.527344 787.554688 L 500.191406 787.367188 C 515.457031 787.367188 527.898438 773.910156 527.898438 757.398438 C 527.898438 746.765625 522.640625 736.855469 514.1875 731.5 C 513.917969 731.332031 513.671875 731.125 513.421875 730.917969 L 474.148438 694.386719 C 447.644531 669.734375 429.246094 644.933594 425.984375 605.265625 Z M 86.703125 727.324219 Z M 525.011719 841.136719 L 70.296875 841.136719 C 55.53125 841.136719 43.503906 829.113281 43.503906 814.347656 C 43.503906 799.578125 55.53125 787.554688 70.296875 787.554688 L 525.011719 787.554688 C 539.777344 787.554688 551.800781 799.578125 551.800781 814.347656 C 551.800781 829.113281 539.777344 841.136719 525.011719 841.136719 Z M 70.296875 797.9375 C 61.242188 797.9375 53.890625 805.289062 53.890625 814.347656 C 53.890625 823.402344 61.242188 830.753906 70.296875 830.753906 L 525.011719 830.753906 C 534.066406 830.753906 541.417969 823.402344 541.417969 814.347656 C 541.417969 805.289062 534.066406 797.9375 525.011719 797.9375 Z M 426.773438 605.039062 L 168.535156 605.039062 C 168.535156 605.039062 168.535156 605.039062 168.511719 605.039062 C 164.835938 605.039062 161.203125 604.125 157.960938 602.421875 C 148.492188 597.414062 144.046875 585.722656 147.597656 575.234375 C 154.828125 553.84375 190.921875 439.570312 190.921875 290.578125 C 190.921875 287.710938 193.25 285.382812 196.113281 285.382812 L 399.191406 285.382812 C 402.058594 285.382812 404.382812 287.710938 404.382812 290.578125 C 404.382812 439.570312 440.480469 553.84375 447.707031 575.234375 C 451.261719 585.722656 446.792969 597.414062 437.324219 602.421875 C 434.105469 604.125 430.449219 605.039062 426.773438 605.039062 Z M 168.535156 594.652344 L 426.773438 594.652344 C 426.773438 594.652344 426.773438 594.652344 426.792969 594.652344 C 428.808594 594.652344 430.71875 594.175781 432.503906 593.242188 C 437.511719 590.582031 439.835938 584.269531 437.90625 578.558594 C 430.65625 557.144531 394.871094 443.851562 394.042969 295.769531 L 201.285156 295.769531 C 200.457031 443.851562 164.671875 557.144531 157.421875 578.558594 C 155.492188 584.269531 157.796875 590.582031 162.824219 593.242188 C 164.585938 594.175781 166.519531 594.652344 168.535156 594.652344 Z M 405.609375 295.894531 L 189.675781 295.894531 C 173.707031 295.894531 160.703125 282.890625 160.703125 266.921875 C 160.703125 250.949219 173.707031 237.949219 189.675781 237.949219 L 405.609375 237.949219 C 421.582031 237.949219 434.582031 250.949219 434.582031 266.921875 C 434.582031 282.890625 421.601562 295.894531 405.609375 295.894531 Z M 189.675781 248.3125 C 179.417969 248.3125 171.089844 256.660156 171.089844 266.898438 C 171.089844 277.160156 179.4375 285.488281 189.675781 285.488281 L 405.609375 285.488281 C 415.871094 285.488281 424.199219 277.140625 424.199219 266.898438 C 424.199219 256.640625 415.847656 248.3125 405.609375 248.3125 Z M 429.472656 248.3125 L 165.832031 248.3125 L 165.003906 248.019531 C 136.300781 238.074219 117.007812 210.992188 117.007812 180.605469 L 117.007812 0 L 206.125 0 L 206.125 44.507812 L 235.96875 44.507812 L 235.96875 0 L 359.335938 0 L 359.335938 44.507812 L 389.183594 44.507812 L 389.183594 0 L 478.300781 0 L 478.300781 180.625 C 478.300781 211.011719 459.007812 238.09375 430.304688 248.042969 Z M 167.597656 237.925781 L 427.707031 237.925781 C 451.800781 229.203125 467.917969 206.296875 467.917969 180.625 L 467.917969 10.382812 L 399.566406 10.382812 L 399.566406 54.890625 L 348.953125 54.890625 L 348.953125 10.382812 L 246.355469 10.382812 L 246.355469 54.890625 L 195.742188 54.890625 L 195.742188 10.382812 L 127.390625 10.382812 L 127.390625 180.625 C 127.390625 206.296875 143.507812 229.203125 167.597656 237.925781 Z M 167.597656 237.925781 " fill-opacity="1" fill-rule="nonzero"/></g></svg>