<svg xmlns="http://www.w3.org/2000/svg" xmlns:xlink="http://www.w3.org/1999/xlink" width="793" zoomAndPan="magnify" viewBox="0 0 594.95996 842.24997" height="1122" preserveAspectRatio="xMidYMid meet" version="1.0"><defs><clipPath id="58b0dacfb6"><path d="M 99.425781 1 L 495.820312 1 L 495.820312 840 L 99.425781 840 Z M 99.425781 1 " clip-rule="nonzero"/></clipPath></defs><path fill="#ffffff" d="M 230.226562 314.453125 C 204.421875 296.910156 187.894531 267.667969 187.894531 232.378906 C 187.894531 192.058594 213.472656 162.460938 244.515625 119.28125 C 263.03125 93.539062 274.027344 65.726562 279.414062 47.191406 L 316.9375 47.046875 C 322.425781 65.601562 332.71875 94.183594 350.757812 119.261719 C 381.800781 162.441406 407.378906 192.035156 407.378906 232.359375 C 407.378906 266.902344 391.371094 296.828125 366.496094 314.429688 L 230.226562 314.429688 Z M 268.292969 136.347656 C 264.585938 141.523438 260.941406 146.496094 257.417969 151.320312 C 236.191406 180.316406 221.28125 200.714844 217.882812 222.789062 M 223.019531 261.289062 C 225.546875 267.046875 228.859375 272.328125 232.855469 277.070312 M 396.238281 644.585938 L 199.015625 644.585938 L 199.015625 693.214844 L 120.445312 748.507812 C 112.222656 753.1875 107.167969 761.699219 107.167969 770.875 C 107.167969 785.246094 119.304688 796.886719 134.277344 796.867188 L 461.015625 796.742188 C 475.96875 796.742188 488.105469 785.101562 488.105469 770.75 L 488.105469 770.730469 C 488.105469 761.554688 483.050781 753.042969 474.832031 748.363281 L 398.824219 691.246094 Z M 366.105469 644.585938 L 352.539062 385.714844 L 242.734375 385.714844 L 229.171875 644.585938 Z M 407.378906 370.367188 C 407.378906 360.074219 399.03125 351.730469 388.738281 351.730469 L 206.515625 351.730469 C 196.222656 351.730469 187.875 360.074219 187.875 370.367188 C 187.875 380.660156 196.222656 389.007812 206.515625 389.007812 L 388.738281 389.007812 C 399.03125 389.007812 407.378906 380.660156 407.378906 370.367188 Z M 395.160156 333.113281 C 395.160156 322.820312 386.8125 314.472656 376.519531 314.472656 L 218.734375 314.472656 C 208.441406 314.472656 200.09375 322.820312 200.09375 333.113281 C 200.09375 343.402344 208.441406 351.75 218.734375 351.75 L 376.519531 351.75 C 386.8125 351.75 395.160156 343.402344 395.160156 333.113281 Z M 490.652344 815.835938 C 490.652344 805.378906 482.183594 796.90625 471.722656 796.90625 L 123.53125 796.90625 C 113.070312 796.90625 104.601562 805.378906 104.601562 815.835938 C 104.601562 826.292969 113.070312 834.765625 123.53125 834.765625 L 471.703125 834.765625 C 482.183594 834.765625 490.652344 826.292969 490.652344 815.835938 Z M 335.371094 26.710938 C 335.371094 15.527344 326.214844 6.375 315.035156 6.375 L 280.242188 6.375 C 269.058594 6.375 259.902344 15.527344 259.902344 26.710938 C 259.902344 37.894531 269.058594 47.046875 280.242188 47.046875 L 315.011719 47.046875 C 326.214844 47.066406 335.371094 37.914062 335.371094 26.710938 Z M 335.371094 26.710938 " fill-opacity="1" fill-rule="nonzero"/><g clip-path="url(#58b0dacfb6)"><path fill="#000000" d="M 368.132812 319.628906 L 228.632812 319.628906 L 227.308594 318.738281 C 198.957031 299.480469 182.699219 268 182.699219 232.378906 C 182.699219 195.144531 203.386719 166.832031 229.585938 131.003906 C 233.0625 126.261719 236.648438 121.355469 240.292969 116.257812 C 260.980469 87.492188 271.046875 57.382812 274.402344 45.761719 L 275.476562 42.035156 L 320.75 41.871094 L 321.847656 45.597656 C 330.089844 73.453125 341.210938 97.226562 354.898438 116.257812 C 358.566406 121.355469 362.148438 126.242188 365.605469 131.003906 C 391.804688 166.832031 412.492188 195.144531 412.492188 232.378906 C 412.492188 267.335938 396.402344 299.601562 369.417969 318.675781 Z M 231.84375 309.273438 L 364.820312 309.273438 C 388.261719 292.023438 402.199219 263.402344 402.199219 232.378906 C 402.199219 198.519531 383.375 172.753906 357.300781 137.113281 C 353.824219 132.351562 350.21875 127.421875 346.53125 122.304688 C 332.78125 103.191406 321.535156 79.625 313.085938 52.265625 L 283.265625 52.371094 C 278.894531 66.410156 268.414062 94.929688 248.742188 122.304688 C 245.074219 127.421875 241.472656 132.351562 237.972656 137.113281 C 211.898438 172.753906 193.074219 198.519531 193.074219 232.378906 C 193.074219 263.960938 207.175781 291.898438 231.84375 309.273438 Z M 223 223.578125 C 226.210938 202.765625 241.039062 182.46875 261.582031 154.386719 L 261.769531 154.136719 C 265.246094 149.375 268.828125 144.464844 272.496094 139.390625 C 274.171875 137.074219 273.632812 133.84375 271.316406 132.164062 C 268.996094 130.488281 265.765625 131.023438 264.085938 133.34375 C 260.441406 138.417969 256.878906 143.304688 253.421875 148.027344 L 253.234375 148.277344 C 231.84375 177.539062 216.371094 198.703125 212.789062 222.003906 C 212.355469 224.820312 214.300781 227.472656 217.117188 227.90625 C 217.386719 227.945312 217.65625 227.96875 217.90625 227.96875 C 220.410156 227.96875 222.605469 226.125 223 223.578125 Z M 236.191406 281.046875 C 238.386719 279.203125 238.65625 275.933594 236.8125 273.757812 C 233.105469 269.367188 230.0625 264.480469 227.761719 259.21875 C 226.601562 256.609375 223.558594 255.410156 220.929688 256.566406 C 218.320312 257.726562 217.117188 260.773438 218.277344 263.402344 C 220.992188 269.554688 224.550781 275.289062 228.902344 280.445312 C 229.917969 281.667969 231.386719 282.289062 232.855469 282.289062 C 234.039062 282.269531 235.21875 281.855469 236.191406 281.046875 Z M 134.257812 802.0625 C 125.683594 802.0625 117.605469 798.855469 111.519531 793.011719 C 105.367188 787.113281 101.992188 779.261719 101.992188 770.894531 C 101.992188 759.980469 107.996094 749.773438 117.667969 744.160156 L 193.859375 690.542969 L 193.859375 644.605469 C 193.859375 641.75 196.179688 639.429688 199.039062 639.429688 L 396.257812 639.429688 C 399.011719 639.429688 401.269531 641.582031 401.433594 644.316406 L 403.859375 688.574219 L 477.6875 744.054688 C 487.316406 749.667969 493.28125 759.855469 493.28125 770.75 C 493.28125 787.960938 478.804688 801.941406 461.015625 801.941406 L 134.257812 802.0625 C 134.277344 802.0625 134.277344 802.0625 134.257812 802.0625 Z M 204.195312 649.765625 L 204.195312 693.214844 C 204.195312 694.890625 203.367188 696.484375 202 697.4375 L 123.425781 752.734375 C 123.28125 752.835938 123.15625 752.917969 123.011719 753.003906 C 116.425781 756.75 112.347656 763.585938 112.347656 770.855469 C 112.347656 776.382812 114.605469 781.582031 118.683594 785.496094 C 122.824219 789.472656 128.355469 791.667969 134.257812 791.667969 L 460.996094 791.523438 C 473.070312 791.523438 482.90625 782.183594 482.90625 770.710938 C 482.90625 763.417969 478.828125 756.566406 472.242188 752.816406 C 472.054688 752.710938 471.867188 752.589844 471.683594 752.464844 L 395.675781 695.347656 C 394.457031 694.433594 393.710938 693.027344 393.628906 691.496094 L 391.328125 649.722656 L 204.195312 649.722656 Z M 366.105469 649.765625 L 229.148438 649.765625 C 227.722656 649.765625 226.375 649.183594 225.402344 648.148438 C 224.429688 647.113281 223.910156 645.726562 223.992188 644.316406 L 237.558594 389.585938 C 237.703125 386.832031 239.980469 384.679688 242.734375 384.679688 L 352.539062 384.679688 C 355.292969 384.679688 357.570312 386.832031 357.714844 389.585938 L 371.28125 644.316406 C 371.363281 645.726562 370.847656 647.113281 369.871094 648.148438 C 368.878906 649.183594 367.53125 649.765625 366.105469 649.765625 Z M 234.617188 639.410156 L 360.65625 639.410156 L 347.628906 395.035156 L 247.644531 395.035156 Z M 388.738281 394.183594 L 206.515625 394.183594 C 193.382812 394.183594 182.699219 383.5 182.699219 370.367188 C 182.699219 357.238281 193.382812 346.550781 206.515625 346.550781 L 388.738281 346.550781 C 401.871094 346.550781 412.554688 357.238281 412.554688 370.367188 C 412.554688 383.5 401.871094 394.183594 388.738281 394.183594 Z M 206.515625 356.925781 C 199.101562 356.925781 193.054688 362.976562 193.054688 370.390625 C 193.054688 377.804688 199.101562 383.851562 206.515625 383.851562 L 388.738281 383.851562 C 396.152344 383.851562 402.199219 377.804688 402.199219 370.390625 C 402.199219 362.976562 396.152344 356.925781 388.738281 356.925781 Z M 376.519531 356.925781 L 218.734375 356.925781 C 205.601562 356.925781 194.917969 346.242188 194.917969 333.113281 C 194.917969 319.980469 205.601562 309.296875 218.734375 309.296875 L 376.519531 309.296875 C 389.652344 309.296875 400.335938 319.980469 400.335938 333.113281 C 400.335938 346.242188 389.652344 356.925781 376.519531 356.925781 Z M 218.734375 319.648438 C 211.320312 319.648438 205.273438 325.699219 205.273438 333.113281 C 205.273438 340.527344 211.320312 346.574219 218.734375 346.574219 L 376.519531 346.574219 C 383.933594 346.574219 389.980469 340.527344 389.980469 333.113281 C 389.980469 325.699219 383.933594 319.648438 376.519531 319.648438 Z M 471.722656 839.941406 L 123.53125 839.941406 C 110.234375 839.941406 99.425781 829.132812 99.425781 815.835938 C 99.425781 802.539062 110.234375 791.707031 123.550781 791.707031 L 471.722656 791.707031 C 485.019531 791.707031 495.828125 802.519531 495.828125 815.835938 C 495.828125 829.152344 485.019531 839.941406 471.722656 839.941406 Z M 123.53125 802.0625 C 115.949219 802.0625 109.757812 808.234375 109.757812 815.835938 C 109.757812 823.4375 115.949219 829.585938 123.53125 829.585938 L 471.703125 829.585938 C 479.28125 829.585938 485.453125 823.414062 485.453125 815.835938 C 485.453125 808.257812 479.28125 802.0625 471.703125 802.0625 Z M 315.011719 52.246094 L 280.242188 52.246094 C 266.179688 52.246094 254.726562 40.792969 254.726562 26.730469 C 254.726562 12.667969 266.179688 1.195312 280.242188 1.195312 L 315.011719 1.195312 C 329.074219 1.195312 340.527344 12.648438 340.527344 26.710938 C 340.527344 40.773438 329.09375 52.246094 315.011719 52.246094 Z M 280.242188 11.550781 C 271.875 11.550781 265.082031 18.363281 265.082031 26.710938 C 265.082031 35.054688 271.894531 41.871094 280.242188 41.871094 L 315.011719 41.871094 C 323.378906 41.871094 330.171875 35.054688 330.171875 26.710938 C 330.171875 18.363281 323.378906 11.550781 315.011719 11.550781 Z M 280.242188 11.550781 " fill-opacity="1" fill-rule="nonzero"/></g></svg>