<svg xmlns="http://www.w3.org/2000/svg" xmlns:xlink="http://www.w3.org/1999/xlink" width="793" zoomAndPan="magnify" viewBox="0 0 594.95996 842.24997" height="1122" preserveAspectRatio="xMidYMid meet" version="1.0"><defs><clipPath id="f6749b51b9"><path d="M 56.839844 789 L 538.660156 789 L 538.660156 841.5 L 56.839844 841.5 Z M 56.839844 789 " clip-rule="nonzero"/></clipPath></defs><path fill="#ffffff" d="M 533.453125 815.539062 C 533.453125 826.832031 524.296875 835.984375 513.003906 835.984375 L 82.480469 835.984375 C 71.1875 835.984375 62.03125 826.832031 62.03125 815.539062 C 62.03125 804.25 71.1875 795.09375 82.480469 795.09375 L 513.003906 795.09375 C 524.296875 795.074219 533.453125 804.226562 533.453125 815.539062 Z M 516.679688 761.613281 L 516.679688 761.59375 C 516.679688 749.84375 510.886719 738.949219 501.421875 732.949219 L 464.242188 698.367188 C 437.75 673.730469 421.746094 638.652344 419.898438 601.167969 L 168.734375 600.066406 C 168.734375 639.667969 152.875 677.363281 125.160156 703.660156 L 94.082031 733.15625 C 84.617188 739.15625 78.824219 750.03125 78.824219 761.800781 C 78.824219 780.191406 92.773438 795.09375 109.984375 795.09375 L 485.539062 794.929688 C 502.726562 794.90625 516.679688 780.003906 516.679688 761.613281 Z M 429.84375 559.820312 L 433.058594 559.820312 C 433.058594 559.820312 415.582031 533.332031 406.074219 492.382812 L 410.101562 470.585938 C 418.238281 452.820312 435.902344 454.875 435.902344 454.875 C 435.902344 437.128906 441.777344 420.148438 449.230469 398.644531 C 459.921875 367.757812 473.230469 329.296875 473.230469 273.667969 C 473.230469 173.1875 393.304688 65.441406 363.433594 36.609375 C 358.824219 31.855469 346.015625 19.089844 329.492188 6.117188 L 299.433594 23.863281 C 301.40625 25.277344 303.335938 26.707031 305.246094 28.160156 L 298.996094 24.113281 L 299.433594 23.863281 C 288.304688 15.933594 276.265625 8.878906 265.285156 5.742188 C 269.894531 29.59375 262.8125 44.726562 262.8125 44.726562 C 254.820312 56.015625 214.195312 72.433594 184.65625 98.589844 C 165.722656 115.359375 113.929688 157.390625 79.179688 185.433594 C 60.058594 200.855469 57.898438 225.785156 74.175781 243.34375 C 90.199219 260.632812 119.160156 265.429688 141.789062 254.367188 C 155.507812 247.660156 170.519531 241.601562 182.207031 240.148438 C 211.125 236.558594 229.597656 245.792969 252.996094 236.558594 C 276.390625 227.320312 294.222656 204.238281 294.222656 204.238281 C 294.222656 299.054688 124.433594 343.246094 124.433594 467.390625 C 124.433594 532.546875 167.859375 559.820312 167.859375 559.820312 L 161.46875 559.820312 C 150.359375 559.820312 141.332031 568.828125 141.332031 579.953125 C 141.332031 591.078125 150.339844 600.085938 161.46875 600.085938 L 429.863281 600.085938 C 440.96875 600.085938 450 591.078125 450 579.953125 C 450 568.828125 440.949219 559.820312 429.84375 559.820312 Z M 429.84375 559.820312 " fill-opacity="1" fill-rule="nonzero"/><path fill="#010101" d="M 434.054688 125.757812 C 411.199219 84.222656 383.921875 49.1875 367.128906 32.976562 C 362.332031 28.035156 349.378906 15.125 332.667969 2.007812 C 330.988281 0.679688 328.660156 0.535156 326.835938 1.613281 L 299.660156 17.65625 C 288.90625 10.25 277.386719 3.773438 266.695312 0.722656 C 264.953125 0.222656 263.082031 0.660156 261.753906 1.882812 C 260.425781 3.109375 259.824219 4.914062 260.15625 6.699219 C 263.957031 26.335938 259.222656 39.640625 258.269531 42.089844 C 254.820312 46.425781 243.859375 52.902344 232.277344 59.730469 C 216.726562 68.90625 197.382812 80.320312 181.1875 94.664062 C 161.839844 111.808594 106.914062 156.332031 75.898438 181.363281 C 65.351562 189.875 59.0625 201.355469 58.167969 213.683594 C 57.296875 225.660156 61.636719 237.429688 70.355469 246.832031 C 87.875 265.71875 119.554688 270.972656 144.050781 258.996094 C 160.285156 251.066406 173.339844 246.457031 182.828125 245.273438 C 194.453125 243.820312 204.292969 244.546875 213.800781 245.234375 C 227.378906 246.230469 240.1875 247.140625 254.863281 241.351562 C 268.148438 236.101562 279.609375 226.800781 287.433594 219.246094 C 280.066406 254.136719 248.054688 282.949219 214.382812 313.210938 C 169.769531 353.3125 119.222656 398.789062 119.222656 467.347656 C 119.222656 534.601562 163.210938 562.996094 165.078125 564.15625 C 165.910156 564.675781 166.863281 564.945312 167.839844 564.945312 L 433.058594 564.945312 C 434.96875 564.945312 436.734375 563.886719 437.628906 562.207031 C 438.539062 560.523438 438.4375 558.492188 437.378906 556.890625 C 437.148438 556.539062 420.5 530.945312 411.261719 491.695312 C 411.367188 479.324219 414.335938 470.378906 420.148438 465.128906 C 426.769531 459.148438 435.238281 459.917969 435.28125 459.9375 C 436.753906 460.105469 438.230469 459.648438 439.328125 458.652344 C 440.429688 457.675781 441.074219 456.265625 441.074219 454.769531 C 441.074219 437.894531 446.824219 421.289062 454.109375 400.242188 C 464.925781 368.984375 478.398438 330.085938 478.398438 273.585938 C 478.398438 218.019531 454.296875 162.519531 434.054688 125.757812 Z M 169.417969 554.628906 C 162.566406 549.792969 129.582031 523.515625 129.582031 467.390625 C 129.582031 403.460938 176.207031 361.53125 221.316406 320.972656 C 261.464844 284.878906 299.371094 250.773438 299.371094 204.238281 C 299.371094 202.019531 297.960938 200.046875 295.863281 199.339844 C 293.765625 198.632812 291.441406 199.320312 290.070312 201.0625 C 289.90625 201.292969 272.757812 223.148438 251.023438 231.742188 C 238.546875 236.660156 227.398438 235.871094 214.527344 234.917969 C 204.980469 234.230469 194.140625 233.441406 181.519531 235 C 170.890625 236.328125 156.734375 241.269531 139.460938 249.695312 C 118.910156 259.722656 92.464844 255.464844 77.933594 239.792969 C 71.1875 232.507812 67.84375 223.523438 68.488281 214.449219 C 69.171875 205.007812 74.113281 196.121094 82.375 189.460938 C 120.34375 158.824219 169.5 118.867188 188.039062 102.449219 C 203.484375 88.769531 222.355469 77.625 237.507812 68.679688 C 252.101562 60.0625 262.628906 53.835938 266.988281 47.691406 C 267.171875 47.445312 267.320312 47.175781 267.464844 46.882812 C 267.734375 46.28125 273.503906 33.660156 271.59375 13.507812 C 279.128906 16.746094 296.507812 28.847656 297.875 29.136719 C 318.117188 43.851562 335.097656 61.351562 335.367188 61.621094 C 335.410156 61.683594 335.472656 61.722656 335.535156 61.765625 C 360.007812 85.074219 431.027344 180.453125 431.027344 265.347656 C 431.027344 313.066406 419.734375 345.652344 409.789062 374.402344 C 401.777344 397.542969 394.863281 417.53125 394.863281 440.925781 C 394.863281 495.226562 414.605469 537.566406 423.96875 554.589844 L 169.417969 554.589844 Z M 444.289062 396.941406 C 437.378906 416.890625 431.792969 433.039062 430.839844 449.789062 C 426.167969 450.285156 419.359375 452.007812 413.359375 457.363281 C 410.703125 459.730469 408.523438 462.59375 406.714844 465.832031 C 405.78125 457.882812 405.242188 449.582031 405.242188 440.96875 C 405.242188 419.316406 411.90625 400.097656 419.609375 377.847656 C 429.820312 348.308594 441.40625 314.851562 441.40625 265.386719 C 441.40625 177.234375 368.144531 78.597656 342.777344 54.375 C 341.242188 52.800781 326.960938 38.1875 308.816406 24.339844 L 329.035156 12.40625 C 343.898438 24.339844 355.316406 35.738281 359.800781 40.34375 C 388.699219 68.222656 468.019531 175.324219 468.019531 273.691406 C 468.019531 328.425781 454.878906 366.410156 444.289062 396.941406 Z M 444.289062 396.941406 " fill-opacity="1" fill-rule="nonzero"/><path fill="#010101" d="M 109.964844 800.261719 C 100.1875 800.261719 91.03125 796.214844 84.160156 788.867188 C 77.371094 781.625 73.636719 771.992188 73.636719 761.78125 C 73.636719 748.496094 80.214844 736 90.867188 729.046875 L 121.589844 699.882812 C 148.242188 674.601562 163.542969 638.214844 163.542969 600.066406 C 163.542969 598.675781 164.082031 597.367188 165.078125 596.390625 C 166.074219 595.417969 167.34375 594.816406 168.753906 594.878906 L 419.898438 595.976562 C 422.660156 595.996094 424.921875 598.15625 425.066406 600.917969 C 426.832031 636.847656 442.402344 670.992188 467.769531 694.570312 L 504.617188 728.839844 C 515.265625 735.8125 521.867188 748.308594 521.867188 761.59375 C 521.867188 782.828125 505.570312 800.097656 485.539062 800.097656 Z M 173.820312 605.277344 C 172.492188 644.359375 156.214844 681.328125 128.730469 707.417969 L 97.652344 736.914062 C 97.40625 737.140625 97.132812 737.351562 96.863281 737.535156 C 88.933594 742.558594 84.015625 751.859375 84.015625 761.800781 C 84.015625 769.378906 86.753906 776.476562 91.738281 781.808594 C 96.636719 787.039062 103.113281 789.90625 109.964844 789.90625 C 109.964844 789.90625 109.964844 789.90625 109.984375 789.90625 L 485.539062 789.738281 C 499.84375 789.738281 511.488281 777.121094 511.488281 761.636719 C 511.488281 751.671875 506.566406 742.371094 498.636719 737.351562 C 498.367188 737.183594 498.121094 736.976562 497.871094 736.769531 L 460.691406 702.1875 C 434.535156 677.863281 418.050781 643.15625 415.019531 606.355469 Z M 94.082031 733.15625 Z M 94.082031 733.15625 " fill-opacity="1" fill-rule="nonzero"/><g clip-path="url(#f6749b51b9)"><path fill="#010101" d="M 513.003906 841.175781 L 82.480469 841.175781 C 68.339844 841.175781 56.839844 829.675781 56.839844 815.539062 C 56.839844 801.40625 68.339844 789.90625 82.480469 789.90625 L 513.003906 789.90625 C 527.140625 789.90625 538.640625 801.40625 538.640625 815.539062 C 538.640625 829.675781 527.140625 841.175781 513.003906 841.175781 Z M 82.480469 800.261719 C 74.070312 800.261719 67.222656 807.113281 67.222656 815.519531 C 67.222656 823.925781 74.070312 830.796875 82.480469 830.796875 L 513.003906 830.796875 C 521.410156 830.796875 528.261719 823.945312 528.261719 815.539062 C 528.261719 807.132812 521.410156 800.285156 513.003906 800.285156 L 82.480469 800.285156 Z M 82.480469 800.261719 " fill-opacity="1" fill-rule="nonzero"/></g><path fill="#010101" d="M 429.84375 605.253906 L 161.445312 605.253906 C 147.496094 605.253906 136.121094 593.902344 136.121094 579.933594 C 136.121094 565.964844 147.476562 554.609375 161.445312 554.609375 L 429.84375 554.609375 C 443.792969 554.609375 455.167969 565.964844 455.167969 579.933594 C 455.167969 593.902344 443.792969 605.253906 429.84375 605.253906 Z M 161.445312 565.007812 C 153.207031 565.007812 146.5 571.710938 146.5 579.953125 C 146.5 588.195312 153.207031 594.898438 161.445312 594.898438 L 429.84375 594.898438 C 438.082031 594.898438 444.789062 588.195312 444.789062 579.953125 C 444.789062 571.710938 438.082031 565.007812 429.84375 565.007812 Z M 161.445312 565.007812 " fill-opacity="1" fill-rule="nonzero"/><path fill="#010101" d="M 200.890625 136.34375 C 201.699219 140.140625 209.523438 138.691406 216.355469 136.863281 C 223.183594 135.035156 227.023438 131.796875 226.902344 126.773438 C 226.796875 122.894531 223.621094 118.390625 216.8125 120.214844 C 209.960938 122.023438 199.601562 130.222656 200.890625 136.34375 Z M 200.890625 136.34375 " fill-opacity="1" fill-rule="nonzero"/><path fill="#010101" d="M 88.332031 216.089844 C 85.46875 216.089844 83.144531 213.765625 83.144531 210.902344 C 83.144531 201.3125 94.5625 197.222656 95.867188 196.808594 C 98.585938 195.894531 101.535156 197.367188 102.429688 200.085938 C 103.339844 202.804688 101.867188 205.734375 99.167969 206.648438 C 96.617188 207.519531 93.523438 209.613281 93.523438 210.902344 C 93.523438 213.765625 91.199219 216.089844 88.332031 216.089844 Z M 88.332031 216.089844 " fill-opacity="1" fill-rule="nonzero"/></svg>