<svg xmlns="http://www.w3.org/2000/svg" xmlns:xlink="http://www.w3.org/1999/xlink" width="793" zoomAndPan="magnify" viewBox="0 0 594.95996 842.24997" height="1122" preserveAspectRatio="xMidYMid meet" version="1.0"><defs><clipPath id="12033801f5"><path d="M 88.910156 1 L 506.289062 1 L 506.289062 841 L 88.910156 841 Z M 88.910156 1 " clip-rule="nonzero"/></clipPath></defs><path fill="#ffffff" d="M 330.011719 55.898438 L 265.144531 55.898438 L 265.144531 38.703125 C 265.144531 20.785156 279.667969 6.253906 297.578125 6.253906 C 315.488281 6.253906 330.011719 20.785156 330.011719 38.703125 Z M 362.648438 130.003906 C 362.960938 128.457031 363.144531 81.886719 363.144531 80.234375 C 363.144531 67.023438 352.457031 56.332031 339.253906 56.332031 L 255.882812 56.332031 C 242.675781 56.332031 231.988281 67.023438 231.988281 80.234375 C 231.988281 82.113281 232.21875 128.890625 232.609375 130.644531 M 424.585938 86.199219 C 407.050781 86.199219 392.835938 100.421875 392.835938 117.96875 C 392.835938 100.421875 378.621094 86.199219 361.082031 86.199219 C 343.546875 86.199219 329.332031 100.421875 329.332031 117.96875 C 329.332031 100.421875 315.113281 86.199219 297.578125 86.199219 C 280.042969 86.199219 265.824219 100.421875 265.824219 117.96875 C 265.824219 100.421875 251.609375 86.199219 234.074219 86.199219 C 216.535156 86.199219 202.320312 100.421875 202.320312 117.96875 C 202.320312 100.421875 188.105469 86.199219 170.570312 86.199219 L 216.949219 276.789062 L 376.246094 276.789062 Z M 402.964844 631.464844 L 190.3125 631.464844 C 190.3125 665.671875 172.488281 698.246094 148.578125 720.949219 L 121.734375 746.421875 C 113.5625 751.605469 108.550781 760.996094 108.550781 771.171875 C 108.550781 787.070312 120.601562 799.949219 135.453125 799.929688 L 459.703125 799.785156 C 474.554688 799.785156 486.585938 786.902344 486.585938 771.03125 L 486.585938 771.007812 C 486.585938 760.851562 481.570312 751.441406 473.402344 746.257812 L 441.296875 716.390625 C 418.417969 695.105469 406.679688 664.804688 405.070312 632.417969 Z M 501.066406 817.597656 C 501.066406 807.835938 493.167969 799.929688 483.40625 799.929688 L 111.726562 799.929688 C 101.96875 799.929688 94.066406 807.835938 94.066406 817.597656 C 94.066406 827.363281 101.96875 835.269531 111.726562 835.269531 L 483.40625 835.269531 C 493.167969 835.269531 501.066406 827.363281 501.066406 817.597656 Z M 385.054688 631.464844 L 367.707031 360.824219 L 227.429688 360.824219 L 210.078125 631.464844 Z M 424.894531 341.566406 C 424.894531 329.613281 415.21875 319.933594 403.273438 319.933594 L 191.863281 319.933594 C 179.914062 319.933594 170.238281 329.613281 170.238281 341.566406 C 170.238281 353.519531 179.914062 363.199219 191.863281 363.199219 L 403.273438 363.199219 C 415.21875 363.179688 424.894531 353.496094 424.894531 341.566406 Z M 410.722656 298.300781 C 410.722656 286.347656 401.046875 276.667969 389.101562 276.667969 L 206.035156 276.667969 C 194.089844 276.667969 184.414062 286.347656 184.414062 298.300781 C 184.414062 310.253906 194.089844 319.933594 206.035156 319.933594 L 389.078125 319.933594 C 401.046875 319.933594 410.722656 310.230469 410.722656 298.300781 Z M 410.722656 298.300781 " fill-opacity="1" fill-rule="nonzero"/><g clip-path="url(#12033801f5)"><path fill="#010101" d="M 241.644531 220.167969 C 242.386719 222.914062 240.757812 225.761719 237.992188 226.484375 C 237.539062 226.609375 237.085938 226.671875 236.652344 226.671875 C 234.382812 226.671875 232.300781 225.144531 231.679688 222.851562 L 216.949219 167.964844 C 216.207031 165.21875 217.835938 162.371094 220.601562 161.648438 C 223.367188 160.90625 226.191406 162.535156 226.914062 165.300781 Z M 506.226562 817.597656 C 506.226562 830.191406 495.992188 840.429688 483.40625 840.429688 L 111.726562 840.429688 C 99.144531 840.429688 88.910156 830.191406 88.910156 817.597656 C 88.910156 805.007812 99.144531 794.769531 111.726562 794.769531 L 112.449219 794.769531 C 106.632812 788.410156 103.414062 780.050781 103.414062 771.171875 C 103.414062 759.492188 109.191406 748.507812 118.558594 742.355469 L 145.046875 717.214844 C 170.175781 693.351562 185.175781 661.316406 185.175781 631.464844 C 185.175781 628.617188 187.488281 626.304688 190.335938 626.304688 L 205.273438 626.304688 L 221.796875 368.359375 L 191.863281 368.359375 C 177.089844 368.359375 165.082031 356.347656 165.082031 341.566406 C 165.082031 328.953125 173.828125 318.386719 185.570312 315.558594 C 181.628906 310.890625 179.253906 304.886719 179.253906 298.300781 C 179.253906 283.519531 191.261719 271.507812 206.035156 271.507812 L 210.304688 271.507812 L 165.535156 87.417969 C 165.164062 85.871094 165.515625 84.261719 166.484375 83 C 167.453125 81.761719 168.960938 81.019531 170.550781 81.019531 C 184.042969 81.019531 195.863281 88.304688 202.300781 99.144531 C 207.582031 90.265625 216.476562 83.785156 226.914062 81.722656 C 226.894531 81.226562 226.832031 80.730469 226.832031 80.234375 C 226.832031 64.214844 239.871094 51.171875 255.882812 51.171875 L 259.964844 51.171875 L 259.964844 38.703125 C 259.988281 17.957031 276.84375 1.09375 297.578125 1.09375 C 318.3125 1.09375 335.167969 17.957031 335.167969 38.703125 L 335.167969 51.171875 L 339.253906 51.171875 C 355.265625 51.171875 368.304688 64.214844 368.304688 80.234375 C 368.304688 80.730469 368.261719 81.226562 368.222656 81.722656 C 378.679688 83.785156 387.554688 90.265625 392.835938 99.144531 C 399.273438 88.304688 411.09375 81.019531 424.585938 81.019531 C 426.175781 81.019531 427.679688 81.761719 428.652344 83.023438 C 429.621094 84.28125 429.972656 85.910156 429.578125 87.460938 L 382.871094 271.507812 L 389.101562 271.507812 C 403.871094 271.507812 415.878906 283.519531 415.878906 298.300781 C 415.878906 304.863281 413.488281 310.890625 409.566406 315.558594 C 421.304688 318.40625 430.054688 328.976562 430.054688 341.566406 C 430.054688 356.347656 418.046875 368.359375 403.273438 368.359375 L 373.359375 368.359375 L 389.882812 626.304688 L 402.964844 626.304688 C 403.6875 626.304688 404.410156 626.472656 405.089844 626.761719 L 407.195312 627.710938 C 408.96875 628.515625 410.125 630.226562 410.226562 632.167969 C 411.835938 664.785156 424.113281 693.351562 444.804688 712.613281 L 476.578125 742.171875 C 485.945312 748.324219 491.742188 759.324219 491.742188 771.007812 C 491.742188 780.257812 488.214844 788.65625 482.539062 794.789062 L 483.429688 794.789062 C 495.992188 794.769531 506.226562 805.007812 506.226562 817.597656 Z M 270.304688 50.738281 L 324.851562 50.738281 L 324.851562 38.703125 C 324.851562 23.65625 312.617188 11.414062 297.578125 11.414062 C 282.539062 11.414062 270.304688 23.65625 270.304688 38.703125 Z M 237.148438 80.234375 C 237.148438 80.542969 237.1875 80.855469 237.210938 81.183594 C 249.382812 82.214844 259.882812 89.171875 265.824219 99.164062 C 272.261719 88.328125 284.085938 81.039062 297.578125 81.039062 C 311.070312 81.039062 322.894531 88.328125 329.332031 99.164062 C 335.273438 89.171875 345.773438 82.214844 357.945312 81.183594 C 357.96875 80.875 357.988281 80.566406 357.988281 80.234375 C 357.988281 69.894531 349.589844 61.492188 339.253906 61.492188 L 255.882812 61.492188 C 245.566406 61.492188 237.148438 69.894531 237.148438 80.234375 Z M 220.929688 271.507812 L 372.222656 271.507812 L 417.738281 92.25 C 406.390625 95.285156 397.992188 105.667969 397.992188 117.96875 C 397.992188 120.816406 395.683594 123.128906 392.835938 123.128906 C 389.988281 123.128906 387.675781 120.816406 387.675781 117.96875 C 387.675781 103.292969 375.75 91.359375 361.082031 91.359375 C 346.414062 91.359375 334.488281 103.292969 334.488281 117.96875 C 334.488281 120.816406 332.175781 123.128906 329.332031 123.128906 C 326.484375 123.128906 324.171875 120.816406 324.171875 117.96875 C 324.171875 103.292969 312.246094 91.359375 297.578125 91.359375 C 282.910156 91.359375 270.984375 103.292969 270.984375 117.96875 C 270.984375 120.816406 268.671875 123.128906 265.824219 123.128906 C 262.980469 123.128906 260.667969 120.816406 260.667969 117.96875 C 260.667969 103.292969 248.742188 91.359375 234.074219 91.359375 C 219.40625 91.359375 207.480469 103.292969 207.480469 117.96875 C 207.480469 120.816406 205.167969 123.128906 202.320312 123.128906 C 199.476562 123.128906 197.164062 120.816406 197.164062 117.96875 C 197.164062 105.644531 188.746094 95.242188 177.335938 92.226562 Z M 189.570312 298.300781 C 189.570312 307.382812 196.957031 314.773438 206.035156 314.773438 L 389.101562 314.773438 C 398.179688 314.773438 405.5625 307.382812 405.5625 298.300781 C 405.5625 289.21875 398.179688 281.828125 389.101562 281.828125 L 377.320312 281.828125 C 376.96875 281.910156 376.597656 281.953125 376.226562 281.953125 L 216.929688 281.953125 C 216.558594 281.953125 216.1875 281.890625 215.835938 281.828125 L 206.054688 281.828125 C 196.957031 281.828125 189.570312 289.21875 189.570312 298.300781 Z M 191.863281 358.019531 L 403.273438 358.019531 C 412.351562 358.019531 419.738281 350.628906 419.738281 341.546875 C 419.738281 332.464844 412.351562 325.074219 403.273438 325.074219 L 191.863281 325.074219 C 182.785156 325.074219 175.398438 332.464844 175.398438 341.546875 C 175.398438 350.648438 182.785156 358.019531 191.863281 358.019531 Z M 215.589844 626.304688 L 379.546875 626.304688 L 363.023438 368.359375 L 232.113281 368.359375 Z M 135.453125 794.769531 L 459.703125 794.625 C 471.6875 794.625 481.425781 784.035156 481.425781 771.03125 C 481.425781 762.648438 477.300781 754.847656 470.636719 750.613281 C 470.367188 750.449219 470.121094 750.242188 469.894531 750.035156 L 437.789062 720.167969 C 415.960938 699.855469 402.695312 670.316406 400.179688 636.628906 L 195.347656 636.628906 C 193.800781 668.085938 178.246094 699.917969 152.125 724.707031 L 125.285156 750.179688 C 125.035156 750.40625 124.765625 750.613281 124.5 750.800781 C 117.855469 755.011719 113.707031 762.835938 113.707031 771.171875 C 113.707031 777.550781 116.019531 783.519531 120.207031 787.996094 C 124.292969 792.351562 129.71875 794.769531 135.453125 794.769531 Z M 495.910156 817.597656 C 495.910156 810.703125 490.296875 805.089844 483.40625 805.089844 L 135.453125 805.089844 C 135.453125 805.089844 135.453125 805.089844 135.433594 805.089844 L 111.707031 805.089844 C 104.816406 805.089844 99.203125 810.703125 99.203125 817.597656 C 99.203125 824.492188 104.816406 830.109375 111.707031 830.109375 L 483.386719 830.109375 C 490.296875 830.109375 495.910156 824.492188 495.910156 817.597656 Z M 495.910156 817.597656 " fill-opacity="1" fill-rule="nonzero"/></g></svg>