<svg xmlns="http://www.w3.org/2000/svg" xmlns:xlink="http://www.w3.org/1999/xlink" width="793" zoomAndPan="magnify" viewBox="0 0 594.95996 842.24997" height="1122" preserveAspectRatio="xMidYMid meet" version="1.0"><defs><clipPath id="4ddb3c13ce"><path d="M 0.246094 0 L 594.675781 0 L 594.675781 841.5 L 0.246094 841.5 Z M 0.246094 0 " clip-rule="nonzero"/></clipPath><clipPath id="2db23699e7"><path d="M 49 0 L 545 0 L 545 841.5 L 49 841.5 Z M 49 0 " clip-rule="nonzero"/></clipPath></defs><g clip-path="url(#4ddb3c13ce)"><path fill="#ffffff" d="M 0.246094 0 L 595.214844 0 L 595.214844 841.5 L 0.246094 841.5 Z M 0.246094 0 " fill-opacity="1" fill-rule="nonzero"/><path fill="#ffffff" d="M 0.246094 0 L 595.214844 0 L 595.214844 841.5 L 0.246094 841.5 Z M 0.246094 0 " fill-opacity="1" fill-rule="nonzero"/></g><g clip-path="url(#2db23699e7)"><path fill="#000000" d="M 543.695312 399.796875 C 546.242188 386.53125 540.621094 308.964844 540.621094 308.964844 C 529.910156 325.304688 528.898438 330.929688 486.527344 367.644531 C 444.203125 404.410156 425.804688 405.417969 425.804688 405.417969 C 463.035156 376.34375 486 337.03125 497.722656 310.503906 C 509.445312 283.976562 519.148438 240.097656 518.621094 219.675781 C 518.089844 199.25 491.574219 165.082031 491.574219 165.082031 C 489.554688 181.421875 481.867188 202.855469 468.609375 231.402344 C 455.347656 259.996094 442.570312 269.222656 442.570312 269.222656 C 449.730469 249.902344 451.746094 233.949219 457.367188 200.789062 C 462.988281 167.628906 459.914062 125.289062 450.738281 109.429688 C 441.5625 93.617188 413.507812 82.902344 413.507812 82.902344 C 417.589844 110.964844 410.960938 144.125 404.332031 168.109375 C 397.699219 192.089844 389.535156 190.070312 389.535156 190.070312 C 392.609375 177.335938 394.625 152.824219 394.144531 136.484375 C 393.617188 120.144531 394.144531 75.257812 378.339844 62.476562 C 362.535156 49.742188 310.507812 42.578125 292.875 41.570312 C 275.292969 40.5625 268.664062 39.023438 268.664062 39.023438 C 222.734375 0.480469 189.105469 1.777344 172.246094 1.007812 C 155.429688 0.238281 155.910156 6.871094 156.917969 9.179688 C 157.929688 11.484375 196.984375 70.164062 201.742188 74.921875 C 206.546875 79.730469 219.707031 90.972656 211.6875 91.933594 C 203.664062 92.898438 191.796875 96.933594 180.121094 102.84375 C 168.449219 108.753906 148.753906 135.429688 142.652344 147.15625 C 136.550781 158.878906 120.214844 181.851562 102.34375 206.84375 C 84.472656 231.832031 61.269531 244.089844 56.945312 248.171875 C 52.621094 252.257812 50.078125 255.574219 49.546875 264.753906 C 49.019531 273.933594 49.546875 286.425781 49.546875 301.757812 C 49.546875 317.089844 54.160156 328.527344 58.722656 334.679688 C 63.335938 340.78125 69.195312 339.53125 71.742188 337.992188 C 74.289062 336.457031 97.253906 321.414062 109.503906 315.023438 C 121.753906 308.628906 121.753906 321.414062 120.457031 323.71875 C 119.160156 326.027344 112.289062 332.128906 103.882812 341.308594 C 95.476562 350.488281 94.945312 356.640625 94.945312 365.289062 C 94.945312 373.988281 101.574219 373.988281 101.574219 373.988281 C 101.574219 373.988281 132.417969 374.757812 146.734375 373.988281 C 161.003906 373.21875 163.835938 366.589844 166.863281 362.261719 C 169.9375 357.9375 173.492188 350.777344 186.753906 334.195312 C 200.011719 317.617188 209.714844 310.746094 230.855469 310.746094 C 252.039062 310.746094 260.449219 306.851562 260.449219 306.851562 C 309.59375 284.457031 305.796875 225.34375 305.796875 225.34375 C 320.355469 277.199219 277.695312 308.199219 277.695312 308.199219 C 297.582031 312.425781 323.238281 333.09375 304.835938 369.425781 C 286.484375 405.804688 230.230469 458.234375 196.9375 484.234375 C 163.644531 510.28125 148.464844 525.035156 136.980469 545.222656 C 125.5 565.359375 129.824219 582.707031 136.742188 593.183594 C 143.613281 603.660156 183.246094 647.539062 188.386719 653.015625 C 193.574219 658.496094 190.117188 660.609375 186.222656 660.847656 C 182.332031 661.089844 177.914062 660.992188 174.023438 663.683594 C 170.128906 666.425781 171.042969 668.777344 171.042969 668.777344 C 171.765625 671.132812 180.746094 671.421875 182.71875 672.625 C 184.6875 673.824219 184.976562 677.71875 184.976562 679.832031 C 184.976562 681.945312 186.847656 691.414062 172.292969 694.441406 C 157.734375 697.46875 154.035156 703.910156 154.035156 706.9375 C 154.035156 709.964844 158.984375 715.15625 167.632812 715.15625 C 176.28125 715.15625 179.402344 720.632812 179.402344 723.375 C 179.402344 726.113281 178.488281 734.332031 158.984375 741.683594 C 139.480469 748.988281 115.027344 761.820312 115.027344 775.804688 C 115.027344 789.835938 131.121094 800.171875 131.121094 800.171875 C 122.472656 800.796875 110.703125 804.449219 110.703125 820.308594 C 110.703125 836.167969 119.976562 841.835938 119.976562 841.835938 L 512.277344 841.835938 C 512.277344 841.835938 521.550781 836.167969 521.550781 820.308594 C 521.550781 804.449219 509.78125 800.796875 501.132812 800.171875 C 501.132812 800.171875 517.226562 789.789062 517.226562 775.804688 C 517.226562 761.773438 492.773438 748.988281 473.269531 741.683594 C 453.765625 734.378906 452.851562 726.160156 452.851562 723.375 C 452.851562 720.632812 455.925781 715.15625 464.621094 715.15625 C 473.269531 715.15625 478.21875 709.964844 478.21875 706.9375 C 478.21875 703.910156 474.519531 697.46875 459.960938 694.441406 C 445.40625 691.414062 447.277344 681.945312 447.277344 679.832031 C 447.277344 677.71875 449.871094 674.449219 456.789062 672.382812 C 465.824219 669.691406 463.132812 664.070312 456.984375 663.636719 C 450.832031 663.203125 442.425781 662.53125 445.886719 658.6875 C 449.34375 654.84375 456.214844 649.265625 461.835938 649.265625 C 467.457031 649.265625 487.105469 651.285156 492.675781 646.71875 C 498.296875 642.105469 506.175781 617.644531 506.175781 617.644531 C 478.648438 627.832031 430.175781 620.71875 430.175781 620.71875 C 442.90625 616.105469 466.925781 605.917969 482.203125 598.277344 C 497.53125 590.636719 515.351562 581.457031 520.972656 566.65625 C 526.59375 551.851562 535.242188 499.277344 535.242188 499.277344 C 485.230469 532.964844 403.65625 534.984375 403.65625 534.984375 C 421 523.738281 463.324219 494.664062 482.203125 476.835938 C 501.371094 459.003906 541.152344 413.0625 543.695312 399.796875 Z M 172.339844 15.332031 C 170.324219 12.253906 172.101562 12.542969 177.191406 17.109375 C 182.285156 21.722656 217.980469 71.703125 221.824219 77.324219 C 225.664062 82.949219 228.453125 93.664062 220.285156 84.96875 C 212.117188 76.269531 172.339844 15.332031 172.339844 15.332031 Z M 63.960938 304.59375 C 65.113281 311.175781 67.660156 317.519531 70.589844 322.519531 C 73.039062 326.699219 71.789062 332.226562 67.179688 326.21875 C 64.390625 322.566406 59.875 314.347656 57.570312 305.9375 C 55.265625 297.527344 55.554688 281.1875 56.035156 275.085938 C 56.5625 268.980469 56.5625 261.820312 60.644531 255.191406 C 64.730469 248.558594 76.210938 240.386719 76.210938 240.386719 C 79.765625 237.695312 78.996094 238.992188 76.980469 242.070312 C 74.960938 245.144531 67.035156 254.179688 64.96875 259.804688 C 63.433594 264.082031 63.191406 271.816406 62.953125 280.46875 C 62.664062 289.070312 62.808594 298.007812 63.960938 304.59375 Z M 89.757812 288.109375 C 86.875 292.144531 88.269531 286.042969 88.414062 281.621094 C 88.605469 276.429688 89.375 273.019531 86.300781 269.175781 C 83.175781 265.28125 80.582031 264.367188 76.738281 266.289062 C 73.519531 267.925781 71.742188 268.40625 74.816406 264.367188 C 78.613281 259.417969 86.394531 257.351562 92.496094 265.570312 C 98.644531 273.835938 92.640625 284.121094 89.757812 288.109375 Z M 141.257812 183.96875 C 133.089844 194.683594 116.757812 216.648438 100.472656 227.363281 C 100.472656 227.363281 124.972656 199.296875 135.15625 182.476562 C 145.339844 165.65625 164.75 130.957031 174.933594 120.722656 C 185.121094 110.535156 196.359375 105.390625 209.089844 102.84375 C 221.824219 100.296875 189.203125 118.65625 185.121094 123.269531 C 181.035156 127.835938 149.375 173.25 141.257812 183.96875 Z M 221.824219 168.394531 C 217.210938 174.113281 205.96875 175.796875 209.332031 173.492188 C 212.214844 171.566406 214.710938 170.941406 217.59375 165.847656 C 221.054688 159.746094 217.59375 157.292969 217.59375 157.292969 C 216.730469 152.921875 223.601562 153.785156 225.042969 156.765625 C 226.675781 160.226562 226.433594 162.675781 221.824219 168.394531 Z M 208.179688 152.054688 C 202.558594 156.8125 194.390625 163.15625 190.210938 170.03125 C 185.984375 176.902344 183.34375 184.207031 182.1875 176.902344 C 182.1875 176.902344 182.042969 161.957031 198.570312 150.519531 C 215.097656 139.03125 227.394531 141.578125 238.445312 143.261719 C 251.03125 145.183594 217.738281 144.03125 208.179688 152.054688 Z M 163.019531 553.152344 C 155.765625 567.328125 159.898438 581.648438 164.558594 589.148438 C 169.9375 597.75 177.960938 610.101562 184.398438 618.941406 C 185.40625 620.335938 183.628906 622.019531 182.332031 620.960938 C 171.332031 612.214844 154.179688 598.132812 148.128906 590.300781 C 138.953125 578.429688 140.488281 561.222656 147.742188 548.96875 C 155.285156 536.28125 183.003906 510.136719 205.054688 493.511719 C 206.257812 492.597656 207.792969 494.136719 206.832031 495.335938 C 194.871094 509.898438 168.59375 542.289062 163.019531 553.152344 Z M 180.027344 669.210938 C 180.027344 669.210938 177.289062 668.972656 177.289062 666.472656 C 177.289062 663.972656 180.074219 663.78125 180.074219 663.78125 L 303.15625 664.308594 Z M 164.847656 708.957031 C 164.847656 708.957031 159.800781 708.667969 159.800781 705.589844 C 159.800781 702.515625 164.847656 702.226562 164.847656 702.226562 L 390.398438 702.226562 Z M 439.496094 811.078125 L 321.507812 814.875 L 126.367188 816.941406 C 126.367188 816.941406 119.351562 816.558594 119.351562 812.519531 C 119.351562 808.484375 126.367188 808.101562 126.367188 808.101562 L 439.449219 808.101562 L 439.449219 811.078125 Z M 497.625 772.679688 L 135.300781 786.089844 C 135.300781 786.089844 127.183594 785.511719 127.183594 779.359375 C 127.183594 773.210938 135.300781 772.632812 135.300781 772.632812 L 497.625 772.632812 Z M 497.625 772.679688 " fill-opacity="1" fill-rule="nonzero"/></g></svg>