<svg xmlns="http://www.w3.org/2000/svg" xmlns:xlink="http://www.w3.org/1999/xlink" width="793" zoomAndPan="magnify" viewBox="0 0 595.5 842.249979" height="1122" preserveAspectRatio="xMidYMid meet" version="1.0"><defs><clipPath id="d4c8b62d87"><path d="M 182 559.164062 L 466 559.164062 L 466 841.4375 L 182 841.4375 Z M 182 559.164062 " clip-rule="nonzero"/></clipPath><clipPath id="411d2b5eca"><path d="M 209 411 L 380 411 L 380 519 L 209 519 Z M 209 411 " clip-rule="nonzero"/></clipPath><clipPath id="205b616cd6"><path d="M 533.488281 69.171875 L 396.378906 733.046875 L 61.300781 663.84375 L 198.410156 -0.0273438 Z M 533.488281 69.171875 " clip-rule="nonzero"/></clipPath><clipPath id="b0a9ba0e8f"><path d="M 198.574219 0.00390625 L 61.464844 663.878906 L 396.542969 733.082031 L 533.652344 69.207031 Z M 198.574219 0.00390625 " clip-rule="nonzero"/></clipPath><clipPath id="f26359156c"><path d="M 198.574219 0.00390625 L 61.464844 663.878906 L 396.542969 733.082031 L 533.652344 69.207031 Z M 198.574219 0.00390625 " clip-rule="nonzero"/></clipPath><clipPath id="4d23fa1cf0"><path d="M 209 411 L 269 411 L 269 469 L 209 469 Z M 209 411 " clip-rule="nonzero"/></clipPath><clipPath id="b0920a0fc2"><path d="M 533.488281 69.171875 L 396.378906 733.046875 L 61.300781 663.84375 L 198.410156 -0.0273438 Z M 533.488281 69.171875 " clip-rule="nonzero"/></clipPath><clipPath id="a353bddd37"><path d="M 198.574219 0.00390625 L 61.464844 663.878906 L 396.542969 733.082031 L 533.652344 69.207031 Z M 198.574219 0.00390625 " clip-rule="nonzero"/></clipPath><clipPath id="31d96b9124"><path d="M 198.574219 0.00390625 L 61.464844 663.878906 L 396.542969 733.082031 L 533.652344 69.207031 Z M 198.574219 0.00390625 " clip-rule="nonzero"/></clipPath><clipPath id="57f0a26691"><path d="M 180 432 L 346 432 L 346 556 L 180 556 Z M 180 432 " clip-rule="nonzero"/></clipPath><clipPath id="bcd4137cf4"><path d="M 533.488281 69.171875 L 396.378906 733.046875 L 61.300781 663.84375 L 198.410156 -0.0273438 Z M 533.488281 69.171875 " clip-rule="nonzero"/></clipPath><clipPath id="775ae5d5f5"><path d="M 198.574219 0.00390625 L 61.464844 663.878906 L 396.542969 733.082031 L 533.652344 69.207031 Z M 198.574219 0.00390625 " clip-rule="nonzero"/></clipPath><clipPath id="003fff6b95"><path d="M 198.574219 0.00390625 L 61.464844 663.878906 L 396.542969 733.082031 L 533.652344 69.207031 Z M 198.574219 0.00390625 " clip-rule="nonzero"/></clipPath><clipPath id="153152afdc"><path d="M 180 432 L 228 432 L 228 530 L 180 530 Z M 180 432 " clip-rule="nonzero"/></clipPath><clipPath id="32caffeef5"><path d="M 533.488281 69.171875 L 396.378906 733.046875 L 61.300781 663.84375 L 198.410156 -0.0273438 Z M 533.488281 69.171875 " clip-rule="nonzero"/></clipPath><clipPath id="c70e684590"><path d="M 198.574219 0.00390625 L 61.464844 663.878906 L 396.542969 733.082031 L 533.652344 69.207031 Z M 198.574219 0.00390625 " clip-rule="nonzero"/></clipPath><clipPath id="78066377ce"><path d="M 198.574219 0.00390625 L 61.464844 663.878906 L 396.542969 733.082031 L 533.652344 69.207031 Z M 198.574219 0.00390625 " clip-rule="nonzero"/></clipPath><clipPath id="aa94c13c6d"><path d="M 103 27 L 503 27 L 503 691 L 103 691 Z M 103 27 " clip-rule="nonzero"/></clipPath><clipPath id="66667fd6af"><path d="M 533.488281 69.171875 L 396.378906 733.046875 L 61.300781 663.84375 L 198.410156 -0.0273438 Z M 533.488281 69.171875 " clip-rule="nonzero"/></clipPath><clipPath id="be06e0487a"><path d="M 198.574219 0.00390625 L 61.464844 663.878906 L 396.542969 733.082031 L 533.652344 69.207031 Z M 198.574219 0.00390625 " clip-rule="nonzero"/></clipPath><clipPath id="5c49950a90"><path d="M 198.574219 0.00390625 L 61.464844 663.878906 L 396.542969 733.082031 L 533.652344 69.207031 Z M 198.574219 0.00390625 " clip-rule="nonzero"/></clipPath><clipPath id="f0abb06d39"><path d="M 416 63 L 503 63 L 503 624 L 416 624 Z M 416 63 " clip-rule="nonzero"/></clipPath><clipPath id="8079ef92c5"><path d="M 533.488281 69.171875 L 396.378906 733.046875 L 61.300781 663.84375 L 198.410156 -0.0273438 Z M 533.488281 69.171875 " clip-rule="nonzero"/></clipPath><clipPath id="8ebf4de9ef"><path d="M 198.574219 0.00390625 L 61.464844 663.878906 L 396.542969 733.082031 L 533.652344 69.207031 Z M 198.574219 0.00390625 " clip-rule="nonzero"/></clipPath><clipPath id="6cda9a1c3b"><path d="M 198.574219 0.00390625 L 61.464844 663.878906 L 396.542969 733.082031 L 533.652344 69.207031 Z M 198.574219 0.00390625 " clip-rule="nonzero"/></clipPath><clipPath id="7289602da1"><path d="M 404 57 L 503 57 L 503 625 L 404 625 Z M 404 57 " clip-rule="nonzero"/></clipPath><clipPath id="d2bc30761c"><path d="M 533.488281 69.171875 L 396.378906 733.046875 L 61.300781 663.84375 L 198.410156 -0.0273438 Z M 533.488281 69.171875 " clip-rule="nonzero"/></clipPath><clipPath id="d844b588d8"><path d="M 198.574219 0.00390625 L 61.464844 663.878906 L 396.542969 733.082031 L 533.652344 69.207031 Z M 198.574219 0.00390625 " clip-rule="nonzero"/></clipPath><clipPath id="7d2cb7920c"><path d="M 198.574219 0.00390625 L 61.464844 663.878906 L 396.542969 733.082031 L 533.652344 69.207031 Z M 198.574219 0.00390625 " clip-rule="nonzero"/></clipPath><clipPath id="410b41ebd5"><path d="M 169 402 L 342 402 L 342 681 L 169 681 Z M 169 402 " clip-rule="nonzero"/></clipPath><clipPath id="5ec4f49906"><path d="M 533.488281 69.171875 L 396.378906 733.046875 L 61.300781 663.84375 L 198.410156 -0.0273438 Z M 533.488281 69.171875 " clip-rule="nonzero"/></clipPath><clipPath id="5bdd652829"><path d="M 198.574219 0.00390625 L 61.464844 663.878906 L 396.542969 733.082031 L 533.652344 69.207031 Z M 198.574219 0.00390625 " clip-rule="nonzero"/></clipPath><clipPath id="a6ec30db8e"><path d="M 198.574219 0.00390625 L 61.464844 663.878906 L 396.542969 733.082031 L 533.652344 69.207031 Z M 198.574219 0.00390625 " clip-rule="nonzero"/></clipPath></defs><g clip-path="url(#d4c8b62d87)"><path fill="#000000" d="M 263.183594 840.394531 C 258.070312 837.839844 257.3125 822.773438 261.648438 810.003906 C 265.355469 799.09375 269.632812 793.328125 285.984375 777.199219 C 300.71875 762.671875 304.640625 757.890625 309.226562 748.878906 C 314.699219 738.121094 316.855469 729.617188 317.429688 716.53125 C 317.632812 711.914062 317.644531 708.136719 317.460938 708.136719 C 317.273438 708.136719 314.167969 709.941406 310.5625 712.152344 C 306.953125 714.359375 298.832031 718.792969 292.511719 722.003906 C 268.527344 734.199219 264.761719 737.777344 254.058594 758.558594 C 252.070312 762.417969 249.171875 767.203125 247.613281 769.191406 C 242.621094 775.558594 234.597656 780.367188 228.972656 780.367188 C 226.570312 780.367188 222.171875 778.714844 219.839844 776.933594 C 218.753906 776.105469 217.351562 774.285156 216.722656 772.890625 C 215.6875 770.59375 215.300781 770.3125 212.644531 769.921875 C 194.476562 767.238281 181.59375 751.414062 183.019531 733.539062 C 183.9375 722.042969 189.105469 710.550781 202.097656 691.105469 C 210.988281 677.796875 214.601562 671.339844 217.078125 664.339844 C 218.363281 660.710938 218.515625 659.09375 218.539062 648.574219 L 218.566406 636.855469 L 220.617188 632.519531 C 222.324219 628.910156 224.121094 626.742188 231.386719 619.53125 C 236.183594 614.769531 240.9375 609.648438 241.945312 608.152344 L 243.78125 605.425781 L 242.390625 587.875 C 240.476562 563.683594 240.472656 563.746094 244.398438 562.089844 C 247.078125 560.964844 246.945312 560.902344 267.179688 573.089844 C 276.515625 578.710938 284.367188 583.3125 284.632812 583.3125 C 284.898438 583.3125 289.898438 578.1875 295.746094 571.921875 C 304.554688 562.480469 306.75 560.460938 308.570312 560.117188 C 312.433594 559.390625 313.351562 560.6875 321.214844 578 L 328.425781 593.867188 L 332.351562 593.289062 C 337.992188 592.464844 351.71875 593.191406 358.847656 594.695312 C 371.792969 597.429688 384.644531 603 395.050781 610.394531 C 402 615.328125 413.1875 626.65625 418.367188 634 C 429.558594 649.875 437.671875 667.636719 445.109375 692.558594 C 457.875 735.355469 465.742188 785.398438 465.949219 825.175781 C 466.015625 837.703125 465.984375 838.015625 464.578125 839.433594 L 463.136719 840.882812 L 363.953125 841.035156 C 285.695312 841.15625 264.433594 841.019531 263.1875 840.394531 Z M 263.183594 840.394531 " fill-opacity="1" fill-rule="nonzero"/></g><path fill="#ffffff" d="M 263.550781 583.847656 C 257.949219 580.480469 253.289062 577.804688 253.191406 577.898438 C 253.09375 577.996094 253.351562 582.632812 253.769531 588.207031 L 254.527344 598.335938 L 273.730469 589.96875 Z M 263.550781 583.847656 " fill-opacity="1" fill-rule="nonzero"/><path fill="#ffffff" d="M 455.339844 829.445312 C 457.167969 827.613281 457.167969 827.535156 455.203125 802.546875 C 451.527344 755.859375 440.15625 700.917969 427.59375 669.167969 C 423.914062 659.871094 416.902344 646.578125 412.046875 639.707031 C 401.628906 624.949219 386.144531 612.867188 370.394531 607.207031 C 360.949219 603.808594 353.632812 602.632812 342.285156 602.691406 C 335.503906 602.726562 330.1875 603.089844 327.117188 603.730469 C 324.519531 604.269531 322.0625 604.585938 321.660156 604.429688 C 321.253906 604.273438 318.703125 599.246094 315.988281 593.253906 C 313.277344 587.265625 310.347656 580.8125 309.484375 578.917969 L 307.910156 575.476562 L 288.175781 595.882812 L 253.792969 610.695312 L 249.644531 616.253906 C 247.367188 619.308594 242.640625 624.453125 239.144531 627.683594 C 229.757812 636.355469 229.960938 635.882812 229.90625 649.210938 C 229.867188 658.753906 229.664062 660.960938 228.449219 665.050781 C 226.050781 673.113281 220.714844 683.183594 211.65625 696.730469 C 201.722656 711.589844 196.554688 721.46875 195.078125 728.417969 C 193.824219 734.328125 194.195312 741.707031 195.941406 745.597656 C 199.019531 752.46875 206.589844 757.917969 214.019531 758.613281 L 218.082031 758.996094 L 222.320312 753.367188 C 224.652344 750.269531 227.179688 747.390625 227.941406 746.96875 C 231.007812 745.257812 234.304688 746.34375 235.632812 749.503906 C 236.75 752.160156 236.195312 753.441406 230.816406 760.605469 C 228.382812 763.847656 226.484375 766.984375 226.59375 767.574219 C 226.960938 769.515625 230.894531 769.289062 233.832031 767.160156 C 237.898438 764.210938 240.609375 760.40625 246.128906 749.917969 C 248.957031 744.535156 252.507812 738.398438 254.023438 736.273438 C 259.828125 728.121094 268.582031 721.773438 286.808594 712.496094 C 304.746094 703.371094 320.605469 693.242188 325.289062 687.929688 C 330.808594 681.664062 333.148438 674.355469 332.601562 665.09375 C 332.191406 658.152344 332.890625 656.078125 336.011719 654.988281 C 337.597656 654.433594 338.4375 654.496094 340.101562 655.285156 C 342.75 656.542969 343.566406 658.726562 344.003906 665.703125 C 344.671875 676.351562 339.910156 688.921875 332.25 696.722656 L 328.046875 701.007812 L 328.554688 705.046875 C 329.3125 711.0625 328.554688 724.746094 327.097656 731.265625 C 324.226562 744.109375 318.824219 756.347656 311.757812 766.011719 C 309.660156 768.878906 301.84375 777.25 294.203125 784.804688 C 280.578125 798.28125 276.636719 803.054688 273.539062 809.832031 C 271.566406 814.140625 270.164062 820.769531 270.148438 825.832031 L 270.136719 829.792969 L 359.652344 829.792969 C 418.644531 829.792969 449.296875 830.007812 449.558594 830.425781 C 450.324219 831.664062 453.695312 831.09375 455.339844 829.445312 Z M 455.339844 829.445312 " fill-opacity="1" fill-rule="nonzero"/><path fill="#000000" d="M 237.910156 661.78125 C 240.773438 656.382812 249.03125 643.085938 250.707031 641.175781 C 254.121094 637.28125 259.410156 635.613281 263.457031 637.152344 C 264.347656 637.492188 265.078125 638.140625 265.078125 638.59375 C 265.078125 640.566406 259.945312 648.011719 255.570312 652.382812 C 251.957031 655.992188 249.511719 657.78125 245.445312 659.792969 C 242.496094 661.253906 239.414062 662.632812 238.601562 662.859375 C 237.21875 663.242188 237.175781 663.171875 237.910156 661.78125 Z M 237.910156 661.78125 " fill-opacity="1" fill-rule="nonzero"/><path fill="#000000" d="M 198.75 739.414062 C 198.992188 734.390625 199.394531 732.355469 200.695312 729.503906 C 202.421875 725.726562 205.238281 723.351562 207.992188 723.347656 C 211.554688 723.339844 215.082031 726.902344 215.082031 730.507812 C 215.082031 733.238281 212.351562 736.179688 205.339844 740.996094 L 198.445312 745.734375 Z M 198.75 739.414062 " fill-opacity="1" fill-rule="nonzero"/><g clip-path="url(#411d2b5eca)"><g clip-path="url(#205b616cd6)"><g clip-path="url(#b0a9ba0e8f)"><g clip-path="url(#f26359156c)"><path fill="#be5e3e" d="M 226.402344 472.53125 C 226.402344 472.53125 252.351562 519.4375 266.152344 518.65625 C 341.0625 514.359375 325.09375 518.628906 355.996094 513.042969 C 355.996094 513.042969 369.460938 514.125 379.472656 457.023438 L 376.925781 432.214844 L 361.355469 427.1875 C 361.355469 427.1875 339.660156 445.878906 339.457031 469.660156 C 339.457031 469.660156 319.058594 464.132812 297.347656 471.515625 C 297.347656 471.515625 261.265625 409.621094 239.355469 411.84375 L 209.828125 433.308594 L 226.402344 472.53125 " fill-opacity="1" fill-rule="nonzero"/></g></g></g></g><g clip-path="url(#4d23fa1cf0)"><g clip-path="url(#b0920a0fc2)"><g clip-path="url(#a353bddd37)"><g clip-path="url(#31d96b9124)"><path fill="#b05339" d="M 224.683594 468.46875 L 209.828125 433.308594 L 239.355469 411.84375 C 247.972656 410.96875 258.769531 420.023438 268.722656 431.324219 C 260.585938 439.628906 242 457.746094 224.683594 468.46875 " fill-opacity="1" fill-rule="nonzero"/></g></g></g></g><g clip-path="url(#57f0a26691)"><g clip-path="url(#bcd4137cf4)"><g clip-path="url(#775ae5d5f5)"><g clip-path="url(#003fff6b95)"><path fill="#cf7d57" d="M 180.316406 519.429688 C 180.316406 519.429688 190.246094 529.3125 207.335938 531.535156 C 207.335938 531.535156 220.59375 535.144531 238.375 544.226562 C 238.375 544.226562 267.449219 557.113281 276.1875 555.246094 C 276.1875 555.246094 334.28125 512.738281 345.757812 508.605469 C 345.757812 508.605469 331.296875 458.539062 272.167969 504.5625 C 272.167969 504.5625 260.171875 486.101562 231.007812 487.632812 C 231.007812 487.632812 233.761719 460.574219 218.980469 432.378906 L 190.847656 448.089844 L 180.316406 519.429688 " fill-opacity="1" fill-rule="nonzero"/></g></g></g></g><g clip-path="url(#153152afdc)"><g clip-path="url(#32caffeef5)"><g clip-path="url(#c70e684590)"><g clip-path="url(#78066377ce)"><path fill="#c36746" d="M 180.316406 519.429688 L 190.847656 448.089844 L 218.980469 432.378906 C 223.09375 440.222656 225.84375 447.972656 227.6875 455.082031 L 210.472656 465.410156 C 211.074219 485.070312 202.597656 514.164062 197.664062 529.308594 C 186.574219 525.628906 180.316406 519.429688 180.316406 519.429688 " fill-opacity="1" fill-rule="nonzero"/></g></g></g></g><g clip-path="url(#aa94c13c6d)"><g clip-path="url(#66667fd6af)"><g clip-path="url(#be06e0487a)"><g clip-path="url(#5c49950a90)"><path fill="#e8a982" d="M 162.648438 646.90625 C 144.664062 635.867188 141.765625 617.359375 141.765625 617.359375 C 133.175781 591.503906 113.492188 525.214844 113.492188 525.214844 C 94.894531 501.695312 108.871094 480.152344 108.871094 480.152344 C 118.339844 456.429688 141.613281 373.914062 141.613281 373.914062 C 146.375 352.648438 162.054688 341.160156 162.054688 341.160156 C 185.078125 323.984375 301.382812 239.957031 301.382812 239.957031 C 325.828125 222.273438 329.191406 122.007812 326.609375 27.65625 L 502.292969 63.941406 C 499.695312 89.207031 498.144531 105.871094 498.144531 105.871094 C 484.996094 199.386719 480.066406 271.335938 480.066406 271.335938 C 483.476562 304.640625 455.890625 383.640625 455.890625 383.640625 C 438.671875 409.136719 438.191406 501.222656 438.191406 501.222656 C 441.558594 514.730469 434.328125 531.304688 434.328125 531.304688 C 427.195312 538.949219 416.972656 623.121094 416.972656 623.121094 C 359.886719 636.816406 383.492188 528.542969 383.492188 528.542969 C 371.851562 502 374.355469 439.402344 374.355469 439.402344 C 366.179688 427.363281 341.132812 415.0625 341.132812 415.0625 C 318.863281 420.277344 272.722656 415.054688 272.722656 415.054688 C 238.308594 427.453125 202.472656 464.738281 202.472656 464.738281 C 206.636719 486.082031 180.484375 550.09375 180.484375 550.09375 C 193.789062 573.488281 200.082031 625.304688 200.082031 625.304688 C 207.957031 634.402344 212.40625 648.800781 212.40625 648.800781 C 227.113281 685.90625 197.875 690.839844 197.875 690.839844 C 195.007812 682.230469 162.648438 646.90625 162.648438 646.90625 " fill-opacity="1" fill-rule="nonzero"/></g></g></g></g><g clip-path="url(#f0abb06d39)"><g clip-path="url(#8079ef92c5)"><g clip-path="url(#8ebf4de9ef)"><g clip-path="url(#6cda9a1c3b)"><path fill="#e5b79d" d="M 416.972656 623.121094 C 416.972656 623.121094 422.277344 579.433594 427.910156 552.148438 C 430.097656 541.5625 432.335938 533.4375 434.328125 531.304688 C 434.328125 531.304688 436.539062 526.242188 437.945312 519.429688 C 439.082031 513.917969 439.699219 507.261719 438.191406 501.222656 C 438.191406 501.222656 438.460938 448.554688 446.042969 411.851562 C 448.484375 400.023438 451.691406 389.855469 455.890625 383.640625 C 455.890625 383.640625 468.902344 346.386719 475.953125 312.257812 C 479.167969 296.683594 481.132812 281.765625 480.066406 271.335938 C 480.066406 271.335938 484.996094 199.386719 498.144531 105.871094 C 498.144531 105.871094 499.695312 89.207031 502.292969 63.941406 C 499.695312 89.207031 498.144531 105.871094 498.144531 105.871094 C 484.996094 199.386719 480.066406 271.335938 480.066406 271.335938 C 481.132812 281.765625 479.167969 296.683594 475.953125 312.257812 C 468.902344 346.386719 455.890625 383.640625 455.890625 383.640625 C 451.691406 389.855469 448.484375 400.023438 446.042969 411.851562 C 438.460938 448.554688 438.191406 501.222656 438.191406 501.222656 C 439.699219 507.261719 439.082031 513.917969 437.945312 519.429688 C 436.539062 526.242188 434.328125 531.304688 434.328125 531.304688 C 432.335938 533.4375 430.097656 541.5625 427.910156 552.148438 C 422.277344 579.433594 416.972656 623.121094 416.972656 623.121094 C 416.949219 623.125 416.929688 623.136719 416.90625 623.136719 C 416.925781 623.132812 416.949219 623.125 416.972656 623.121094 M 416.882812 623.140625 C 416.867188 623.144531 416.847656 623.148438 416.832031 623.15625 C 416.847656 623.148438 416.867188 623.144531 416.882812 623.140625 M 416.808594 623.164062 C 416.792969 623.160156 416.773438 623.167969 416.757812 623.171875 C 416.773438 623.167969 416.792969 623.160156 416.808594 623.164062 " fill-opacity="1" fill-rule="nonzero"/></g></g></g></g><g clip-path="url(#7289602da1)"><g clip-path="url(#d2bc30761c)"><g clip-path="url(#d844b588d8)"><g clip-path="url(#7d2cb7920c)"><path fill="#da926b" d="M 416.972656 623.121094 C 416.972656 623.121094 422.277344 579.433594 427.910156 552.148438 C 430.097656 541.5625 432.335938 533.4375 434.328125 531.304688 C 434.328125 531.304688 436.539062 526.242188 437.945312 519.429688 C 439.082031 513.917969 439.699219 507.261719 438.191406 501.222656 C 438.191406 501.222656 438.460938 448.554688 446.042969 411.851562 C 448.484375 400.023438 451.691406 389.855469 455.890625 383.640625 C 455.890625 383.640625 468.902344 346.386719 475.953125 312.257812 C 479.167969 296.683594 481.132812 281.765625 480.066406 271.335938 C 480.066406 271.335938 484.996094 199.386719 498.144531 105.871094 C 498.144531 105.871094 499.695312 89.207031 502.292969 63.941406 L 470.382812 57.351562 C 464.734375 145.648438 461.972656 223.679688 461.972656 223.679688 C 465.285156 232.824219 463.257812 250.683594 459.304688 269.8125 C 452.257812 303.941406 439.070312 342.121094 439.070312 342.121094 C 437 347 435.269531 353.160156 433.820312 360.1875 C 424.820312 403.753906 426.734375 480.644531 427.441406 493.066406 C 427.726562 498.078125 427.234375 502.527344 426.476562 506.203125 C 425.046875 513.121094 422.65625 517.304688 422.65625 517.304688 C 419.136719 526.25 416.226562 537.167969 413.824219 548.796875 C 408.371094 575.203125 405.550781 605.269531 404.207031 624.109375 C 407.878906 624.542969 412.03125 624.28125 416.757812 623.171875 C 416.773438 623.167969 416.792969 623.160156 416.808594 623.164062 C 416.816406 623.160156 416.824219 623.160156 416.832031 623.15625 C 416.847656 623.148438 416.867188 623.144531 416.882812 623.140625 C 416.890625 623.144531 416.898438 623.136719 416.90625 623.136719 C 416.929688 623.136719 416.949219 623.125 416.972656 623.121094 " fill-opacity="1" fill-rule="nonzero"/></g></g></g></g><g clip-path="url(#410b41ebd5)"><g clip-path="url(#5ec4f49906)"><g clip-path="url(#5bdd652829)"><g clip-path="url(#a6ec30db8e)"><path fill="#da926b" d="M 341.132812 415.0625 C 341.132812 415.0625 277.15625 406.695312 267.460938 402.394531 C 267.460938 402.394531 193.824219 444.828125 188.03125 459.273438 C 188.03125 459.273438 183.582031 494.121094 177.917969 521.542969 C 175.132812 535.023438 172.054688 546.710938 169.070312 551.578125 C 169.070312 551.578125 191.242188 606.738281 188.9375 629.402344 C 188.9375 629.402344 209.46875 659.230469 213.167969 680.410156 C 214.398438 678.40625 215.394531 676.035156 215.976562 673.222656 C 217.210938 667.253906 216.574219 659.324219 212.40625 648.800781 C 212.40625 648.800781 207.957031 634.402344 200.082031 625.304688 C 200.082031 625.304688 193.789062 573.488281 180.484375 550.09375 C 180.484375 550.09375 184.742188 539.675781 189.546875 525.832031 C 193.6875 513.917969 198.234375 499.476562 200.816406 486.976562 C 202.667969 478.019531 203.507812 470.046875 202.472656 464.738281 C 202.472656 464.738281 211.328125 455.519531 224.457031 444.738281 C 234.191406 436.738281 246.269531 427.878906 258.839844 421.265625 C 258.839844 421.265625 258.84375 421.265625 258.84375 421.265625 C 263.4375 418.839844 268.09375 416.730469 272.722656 415.054688 C 272.722656 415.054688 318.863281 420.277344 341.132812 415.0625 " fill-opacity="1" fill-rule="nonzero"/></g></g></g></g></svg>